<svg width="197" height="67" viewBox="0 0 197 67" fill="none" xmlns="http://www.w3.org/2000/svg">
<path d="M12.6515 41.6987C10.2481 41.6987 8.17286 41.1757 6.4259 40.1298C4.69007 39.0838 3.34926 37.6206 2.40345 35.7402C1.46878 33.8597 1.00144 31.6732 1.00144 29.1807C1.00144 26.6883 1.46878 24.5018 2.40345 22.6213C3.34926 20.7408 4.69007 19.2776 6.4259 18.2317C8.17286 17.1857 10.2481 16.6627 12.6515 16.6627C15.411 16.6627 17.7255 17.3471 19.5948 18.7157C21.4753 20.0843 22.7994 21.937 23.5672 24.2737L18.994 25.5422C18.5489 24.0845 17.7978 22.9551 16.7407 22.154C15.6837 21.3417 14.3206 20.9355 12.6515 20.9355C11.1271 20.9355 9.85305 21.2749 8.82936 21.9537C7.81679 22.6324 7.05458 23.5894 6.54274 24.8245C6.03089 26.0596 5.77497 27.5117 5.77497 29.1807C5.77497 30.8498 6.03089 32.3019 6.54274 33.537C7.05458 34.7721 7.81679 35.729 8.82936 36.4078C9.85305 37.0865 11.1271 37.4259 12.6515 37.4259C14.3206 37.4259 15.6837 37.0198 16.7407 36.2075C17.7978 35.3952 18.5489 34.2658 18.994 32.8193L23.5672 34.0878C22.7994 36.4245 21.4753 38.2771 19.5948 39.6458C17.7255 41.0144 15.411 41.6987 12.6515 41.6987ZM30.9142 41.6987C29.6235 41.6987 28.5275 41.4539 27.6262 40.9643C26.736 40.4636 26.0572 39.8015 25.5899 38.9781C25.1337 38.1436 24.9056 37.2256 24.9056 36.2242C24.9056 35.3896 25.0335 34.6274 25.2895 33.9376C25.5454 33.2477 25.9571 32.6413 26.5246 32.1183C27.1032 31.5842 27.8765 31.1391 28.8446 30.783C29.5122 30.5382 30.3078 30.3213 31.2313 30.1321C32.1549 29.9429 33.2008 29.7649 34.3692 29.598C35.5375 29.42 36.8227 29.2252 38.2247 29.0138L36.589 29.9151C36.589 28.8469 36.3331 28.0625 35.8213 27.5617C35.3094 27.061 34.4526 26.8107 33.2509 26.8107C32.5833 26.8107 31.8878 26.972 31.1646 27.2947C30.4413 27.6174 29.935 28.1904 29.6457 29.0138L25.5398 27.7119C25.996 26.2209 26.8528 25.0081 28.1102 24.0734C29.3676 23.1387 31.0811 22.6714 33.2509 22.6714C34.8421 22.6714 36.2552 22.9162 37.4903 23.4058C38.7254 23.8954 39.6601 24.741 40.2944 25.9427C40.6504 26.6104 40.8619 27.278 40.9286 27.9456C40.9954 28.6132 41.0288 29.3588 41.0288 30.1822V41.198H37.0564V37.4927L37.6239 38.2604C36.7448 39.4733 35.7935 40.3523 34.7698 40.8976C33.7572 41.4317 32.472 41.6987 30.9142 41.6987ZM31.8823 38.1269C32.7168 38.1269 33.4178 37.9823 33.9853 37.693C34.5639 37.3925 35.0201 37.0532 35.3539 36.6748C35.6989 36.2965 35.9325 35.9794 36.0549 35.7235C36.2886 35.2339 36.4221 34.6664 36.4555 34.021C36.5 33.3645 36.5223 32.8193 36.5223 32.3853L37.8575 32.7191C36.5112 32.9417 35.4207 33.1308 34.5862 33.2866C33.7516 33.4313 33.0784 33.5648 32.5666 33.6872C32.0548 33.8096 31.6041 33.9431 31.2147 34.0878C30.7696 34.2658 30.4079 34.4605 30.1298 34.672C29.8627 34.8722 29.6624 35.0948 29.5289 35.3396C29.4065 35.5844 29.3453 35.857 29.3453 36.1574C29.3453 36.5691 29.4454 36.9252 29.6457 37.2256C29.8571 37.5149 30.152 37.7375 30.5303 37.8932C30.9087 38.049 31.3593 38.1269 31.8823 38.1269ZM44.0333 41.198V23.1721H48.0391V27.5784L47.6051 27.0109C47.8388 26.3878 48.1504 25.8203 48.5398 25.3085C48.9293 24.7966 49.4077 24.3738 49.9752 24.04C50.4092 23.773 50.8821 23.5671 51.3939 23.4224C51.9058 23.2667 52.4343 23.1721 52.9795 23.1387C53.5248 23.0942 54.07 23.1053 54.6152 23.1721V27.4115C54.1145 27.2557 53.5303 27.2057 52.8627 27.2613C52.2062 27.3058 51.6109 27.456 51.0768 27.7119C50.5427 27.9567 50.092 28.285 49.7249 28.6967C49.3577 29.0973 49.0795 29.5757 48.8903 30.1321C48.7012 30.6773 48.6066 31.2949 48.6066 31.9848V41.198H44.0333ZM68.8458 41.6987C66.5759 41.6987 64.7399 41.1869 63.3379 40.1632C61.947 39.1284 61.1014 37.6707 60.8009 35.7902L65.4409 35.0892C65.6301 35.9349 66.0474 36.5969 66.6927 37.0754C67.3492 37.5539 68.1782 37.7931 69.1796 37.7931C70.003 37.7931 70.6373 37.6373 71.0824 37.3258C71.5275 37.0031 71.75 36.558 71.75 35.9905C71.75 35.6344 71.661 35.3507 71.4829 35.1393C71.3049 34.9167 70.9043 34.6998 70.2812 34.4884C69.6692 34.2769 68.7123 33.9988 67.4104 33.6538C65.9416 33.2755 64.7677 32.8527 63.8887 32.3853C63.0097 31.918 62.3754 31.3616 61.986 30.7163C61.5965 30.0598 61.4018 29.2697 61.4018 28.3462C61.4018 27.189 61.6967 26.1875 62.2864 25.3419C62.8761 24.4851 63.7051 23.8286 64.7733 23.3724C65.8526 22.905 67.1211 22.6714 68.5788 22.6714C69.9919 22.6714 71.2437 22.8883 72.3342 23.3223C73.4246 23.7563 74.3037 24.3738 74.9713 25.175C75.65 25.9761 76.0673 26.9219 76.2231 28.0124L71.5831 28.8469C71.5052 28.1793 71.2159 27.6507 70.7152 27.2613C70.2145 26.8719 69.5357 26.6437 68.6789 26.577C67.8444 26.5213 67.1712 26.6326 66.6593 26.9108C66.1586 27.189 65.9083 27.5896 65.9083 28.1125C65.9083 28.4241 66.014 28.6856 66.2254 28.897C66.4479 29.1084 66.8986 29.3254 67.5773 29.5479C68.2672 29.7705 69.3132 30.0598 70.7152 30.4158C72.0838 30.7719 73.1798 31.1892 74.0032 31.6676C74.8378 32.135 75.4442 32.7025 75.8225 33.3701C76.2008 34.0266 76.39 34.8222 76.39 35.7568C76.39 37.6039 75.7224 39.056 74.3871 40.1131C73.0519 41.1702 71.2048 41.6987 68.8458 41.6987ZM87.1012 41.6987C85.2541 41.6987 83.624 41.3037 82.2109 40.5137C80.8088 39.7125 79.7073 38.6165 78.9061 37.2256C78.1161 35.8236 77.7211 34.2213 77.7211 32.4187C77.7211 30.4492 78.1105 28.7356 78.8894 27.278C79.6683 25.8203 80.7421 24.6909 82.1107 23.8898C83.4794 23.0775 85.0538 22.6714 86.8342 22.6714C88.7258 22.6714 90.3337 23.1165 91.6578 24.0066C92.9819 24.8968 93.9611 26.1486 94.5953 27.762C95.2296 29.3755 95.4521 31.2726 95.263 33.4535H90.7732V31.7845C90.7732 29.9485 90.4783 28.6299 89.8886 27.8288C89.31 27.0165 88.3586 26.6104 87.0345 26.6104C85.4878 26.6104 84.3473 27.0833 83.6129 28.0291C82.8896 28.9637 82.528 30.3491 82.528 32.185C82.528 33.8652 82.8896 35.1671 83.6129 36.0907C84.3473 37.0031 85.421 37.4593 86.8342 37.4593C87.7243 37.4593 88.4866 37.2646 89.1208 36.8751C89.755 36.4857 90.2391 35.9238 90.5729 35.1894L95.1127 36.4912C94.434 38.138 93.3602 39.4177 91.8914 40.3301C90.4338 41.2425 88.8371 41.6987 87.1012 41.6987ZM81.126 33.4535V30.082H93.0765V33.4535H81.126ZM97.6964 41.198V23.1721H101.702V27.5784L101.268 27.0109C101.502 26.3878 101.813 25.8203 102.203 25.3085C102.592 24.7966 103.071 24.3738 103.638 24.04C104.072 23.773 104.545 23.5671 105.057 23.4224C105.569 23.2667 106.097 23.1721 106.643 23.1387C107.188 23.0942 107.733 23.1053 108.278 23.1721V27.4115C107.778 27.2557 107.193 27.2057 106.526 27.2613C105.869 27.3058 105.274 27.456 104.74 27.7119C104.206 27.9567 103.755 28.285 103.388 28.6967C103.021 29.0973 102.743 29.5757 102.553 30.1321C102.364 30.6773 102.27 31.2949 102.27 31.9848V41.198H97.6964ZM114.992 41.198L108.449 23.1721H112.989L117.262 35.6567L121.534 23.1721H126.074L119.531 41.198H114.992ZM128.089 20.6685V16.6627H132.629V20.6685H128.089ZM128.089 41.198V23.1721H132.629V41.198H128.089Z" fill="#313131"/>
<path d="M141.039 0.431885L153.156 19.8411L162.128 6.6438L174.546 6.62915L159.218 29.5491L182.141 66.2639L168.439 66.2258L151.899 40.4944L141.121 56.6135L128.132 56.6584L145.687 30.8303L126.144 0.427979L141.039 0.431885Z" fill="url(#paint0_linear_311_5108)"/>
<path d="M6.38806 55.8391V50.5284H8.37956C8.78754 50.5284 9.12983 50.6045 9.40643 50.7566C9.68475 50.9088 9.8948 51.1179 10.0366 51.3842C10.18 51.6487 10.2518 51.9495 10.2518 52.2866C10.2518 52.6271 10.18 52.9297 10.0366 53.1942C9.89307 53.4586 9.6813 53.667 9.40124 53.8191C9.12119 53.9695 8.77631 54.0447 8.3666 54.0447H7.04671V53.2538H8.23694C8.47551 53.2538 8.67085 53.2123 8.82298 53.1293C8.97511 53.0463 9.08748 52.9322 9.16008 52.787C9.23442 52.6418 9.27159 52.475 9.27159 52.2866C9.27159 52.0981 9.23442 51.9322 9.16008 51.7887C9.08748 51.6452 8.97425 51.5337 8.82039 51.4542C8.66826 51.3729 8.47205 51.3323 8.23176 51.3323H7.3501V55.8391H6.38806ZM17.2202 53.1838C17.2202 53.756 17.113 54.2461 16.8986 54.6541C16.686 55.0603 16.3956 55.3715 16.0274 55.5876C15.6609 55.8037 15.2451 55.9117 14.7801 55.9117C14.315 55.9117 13.8984 55.8037 13.5302 55.5876C13.1637 55.3698 12.8733 55.0577 12.6589 54.6515C12.4463 54.2435 12.34 53.7543 12.34 53.1838C12.34 52.6116 12.4463 52.1223 12.6589 51.7161C12.8733 51.3081 13.1637 50.9961 13.5302 50.78C13.8984 50.5639 14.315 50.4558 14.7801 50.4558C15.2451 50.4558 15.6609 50.5639 16.0274 50.78C16.3956 50.9961 16.686 51.3081 16.8986 51.7161C17.113 52.1223 17.2202 52.6116 17.2202 53.1838ZM16.253 53.1838C16.253 52.781 16.1899 52.4413 16.0637 52.1647C15.9392 51.8864 15.7663 51.6763 15.545 51.5346C15.3238 51.3911 15.0688 51.3193 14.7801 51.3193C14.4914 51.3193 14.2364 51.3911 14.0151 51.5346C13.7938 51.6763 13.6201 51.8864 13.4939 52.1647C13.3694 52.4413 13.3072 52.781 13.3072 53.1838C13.3072 53.5866 13.3694 53.9271 13.4939 54.2055C13.6201 54.4821 13.7938 54.6921 14.0151 54.8356C14.2364 54.9773 14.4914 55.0482 14.7801 55.0482C15.0688 55.0482 15.3238 54.9773 15.545 54.8356C15.7663 54.6921 15.9392 54.4821 16.0637 54.2055C16.1899 53.9271 16.253 53.5866 16.253 53.1838ZM20.4993 55.8391L19.0004 50.5284H20.0351L20.9919 54.4311H21.0412L22.0629 50.5284H23.0042L24.0285 54.4337H24.0751L25.032 50.5284H26.0666L24.5678 55.8391H23.6188L22.5556 52.1128H22.5141L21.4483 55.8391H20.4993ZM28.1211 55.8391V50.5284H31.5751V51.3349H29.0832V52.7767H31.3962V53.5831H29.0832V55.0327H31.5959V55.8391H28.1211ZM33.944 55.8391V50.5284H35.9355C36.3435 50.5284 36.6858 50.5993 36.9624 50.7411C37.2407 50.8828 37.4508 51.0816 37.5925 51.3375C37.736 51.5916 37.8077 51.8881 37.8077 52.2269C37.8077 52.5675 37.7351 52.8631 37.5899 53.1138C37.4464 53.3627 37.2347 53.5555 36.9546 53.692C36.6746 53.8269 36.3305 53.8943 35.9226 53.8943H34.5041V53.0956H35.7929C36.0315 53.0956 36.2268 53.0628 36.3789 52.9971C36.5311 52.9297 36.6434 52.832 36.716 52.7041C36.7904 52.5744 36.8275 52.4154 36.8275 52.2269C36.8275 52.0385 36.7904 51.8777 36.716 51.7446C36.6417 51.6098 36.5285 51.5078 36.3763 51.4386C36.2242 51.3677 36.028 51.3323 35.7877 51.3323H34.9061V55.8391H33.944ZM36.6875 53.4327L38.0022 55.8391H36.9287L35.6373 53.4327H36.6875ZM41.0427 50.5284V55.8391H40.0807V50.5284H41.0427ZM47.8361 50.5284V55.8391H46.9804L44.478 52.2217H44.434V55.8391H43.4719V50.5284H44.3328L46.8326 54.1484H46.8792V50.5284H47.8361ZM53.8295 52.2243C53.7863 52.0843 53.7266 51.959 53.6506 51.8483C53.5762 51.736 53.4863 51.64 53.3809 51.5605C53.2772 51.481 53.1579 51.4213 53.023 51.3816C52.8882 51.3401 52.7413 51.3193 52.5822 51.3193C52.297 51.3193 52.0429 51.3911 51.8198 51.5346C51.5968 51.6781 51.4214 51.889 51.2934 52.1673C51.1673 52.4439 51.1042 52.781 51.1042 53.1786C51.1042 53.5797 51.1673 53.9194 51.2934 54.1977C51.4196 54.476 51.5951 54.6878 51.8198 54.833C52.0446 54.9765 52.3056 55.0482 52.603 55.0482C52.8726 55.0482 53.106 54.9964 53.3031 54.8926C53.5019 54.7889 53.6549 54.642 53.7621 54.4518C53.8693 54.2599 53.9228 54.0352 53.9228 53.7776L54.1407 53.8113H52.6989V53.0593H54.8538V53.6972C54.8538 54.1519 54.757 54.5452 54.5633 54.8771C54.3697 55.209 54.1035 55.4648 53.7647 55.6446C53.4258 55.8227 53.0369 55.9117 52.5978 55.9117C52.1085 55.9117 51.679 55.8019 51.309 55.5824C50.9408 55.3611 50.653 55.0474 50.4455 54.6411C50.2398 54.2331 50.1369 53.7491 50.1369 53.189C50.1369 52.7602 50.1974 52.3773 50.3184 52.0402C50.4412 51.7031 50.6123 51.417 50.8319 51.1819C51.0514 50.9451 51.309 50.7653 51.6046 50.6425C51.9002 50.5181 52.2218 50.4558 52.5693 50.4558C52.8631 50.4558 53.1371 50.4991 53.3913 50.5855C53.6454 50.6702 53.871 50.7912 54.0681 50.9485C54.2669 51.1058 54.4302 51.2925 54.5582 51.5086C54.6861 51.7247 54.7699 51.9633 54.8097 52.2243H53.8295ZM60.3701 55.8391V50.5284H63.8242V51.3349H61.3322V52.7767H63.6452V53.5831H61.3322V55.0327H63.8449V55.8391H60.3701ZM66.9036 50.5284L68.2857 54.7085H68.3401L69.7197 50.5284H70.7776L68.9054 55.8391H67.7178L65.8482 50.5284H66.9036ZM72.8645 55.8391V50.5284H76.3185V51.3349H73.8266V52.7767H76.1396V53.5831H73.8266V55.0327H76.3393V55.8391H72.8645ZM78.6874 55.8391V50.5284H80.6789C81.0869 50.5284 81.4292 50.5993 81.7058 50.7411C81.9841 50.8828 82.1942 51.0816 82.3359 51.3375C82.4794 51.5916 82.5512 51.8881 82.5512 52.2269C82.5512 52.5675 82.4786 52.8631 82.3333 53.1138C82.1899 53.3627 81.9781 53.5555 81.698 53.692C81.418 53.8269 81.074 53.8943 80.666 53.8943H79.2476V53.0956H80.5363C80.7749 53.0956 80.9702 53.0628 81.1224 52.9971C81.2745 52.9297 81.3869 52.832 81.4595 52.7041C81.5338 52.5744 81.571 52.4154 81.571 52.2269C81.571 52.0385 81.5338 51.8777 81.4595 51.7446C81.3851 51.6098 81.2719 51.5078 81.1198 51.4386C80.9676 51.3677 80.7714 51.3323 80.5311 51.3323H79.6495V55.8391H78.6874ZM81.4309 53.4327L82.7456 55.8391H81.6721L80.3807 53.4327H81.4309ZM84.2543 50.5284H85.3408L86.6399 52.8778H86.6918L87.9909 50.5284H89.0774L87.1456 53.858V55.8391H86.1861V53.858L84.2543 50.5284ZM96.1445 55.8391H94.3449V50.5284H96.1808C96.708 50.5284 97.161 50.6348 97.5396 50.8474C97.9199 51.0583 98.212 51.3617 98.416 51.7576C98.62 52.1535 98.722 52.6271 98.722 53.1786C98.722 53.7318 98.6192 54.2072 98.4134 54.6048C98.2095 55.0024 97.9147 55.3075 97.5292 55.5202C97.1454 55.7328 96.6838 55.8391 96.1445 55.8391ZM95.3069 55.0067H96.0978C96.4678 55.0067 96.7763 54.9393 97.0235 54.8045C97.2708 54.6679 97.4566 54.4648 97.5811 54.1951C97.7055 53.9237 97.7678 53.5848 97.7678 53.1786C97.7678 52.7723 97.7055 52.4352 97.5811 52.1673C97.4566 51.8976 97.2725 51.6962 97.0287 51.5631C96.7867 51.4283 96.4859 51.3608 96.1263 51.3608H95.3069V55.0067ZM101.024 55.8391V50.5284H103.015C103.423 50.5284 103.765 50.5993 104.042 50.7411C104.32 50.8828 104.53 51.0816 104.672 51.3375C104.815 51.5916 104.887 51.8881 104.887 52.2269C104.887 52.5675 104.815 52.8631 104.669 53.1138C104.526 53.3627 104.314 53.5555 104.034 53.692C103.754 53.8269 103.41 53.8943 103.002 53.8943H101.584V53.0956H102.872C103.111 53.0956 103.306 53.0628 103.458 52.9971C103.611 52.9297 103.723 52.832 103.796 52.7041C103.87 52.5744 103.907 52.4154 103.907 52.2269C103.907 52.0385 103.87 51.8777 103.796 51.7446C103.721 51.6098 103.608 51.5078 103.456 51.4386C103.304 51.3677 103.107 51.3323 102.867 51.3323H101.986V55.8391H101.024ZM103.767 53.4327L105.082 55.8391H104.008L102.717 53.4327H103.767ZM108.122 50.5284V55.8391H107.16V50.5284H108.122ZM111.262 50.5284L112.644 54.7085H112.698L114.078 50.5284H115.136L113.264 55.8391H112.076L110.207 50.5284H111.262ZM117.223 55.8391V50.5284H120.677V51.3349H118.185V52.7767H120.498V53.5831H118.185V55.0327H120.698V55.8391H117.223Z" fill="#6C6C6C"/>
<path d="M186.064 6.65405H178.853L164.029 30.083L177.892 51.0935H185.252L171.984 30.0087L186.064 6.65405Z" fill="url(#paint1_linear_311_5108)"/>
<path d="M186.175 2.03923V1.448H189.698V2.03923H188.278V6H187.593V2.03923H186.175ZM190.727 1.448H191.56L193.009 4.98647H193.063L194.512 1.448H195.345V6H194.692V2.70603H194.65L193.307 5.99333H192.765L191.422 2.7038H191.38V6H190.727V1.448Z" fill="#474747"/>
<defs>
<linearGradient id="paint0_linear_311_5108" x1="133.585" y1="2.5051" x2="175.511" y2="51.8545" gradientUnits="userSpaceOnUse">
<stop stop-color="#2E2E2E"/>
<stop offset="0.453168" stop-color="#343434"/>
<stop offset="1" stop-color="#737373"/>
</linearGradient>
<linearGradient id="paint1_linear_311_5108" x1="174.66" y1="9.53779" x2="174.66" y2="52.8059" gradientUnits="userSpaceOnUse">
<stop stop-color="#F8C006"/>
<stop offset="0.4375" stop-color="#F8A82D"/>
<stop offset="1" stop-color="#F1C907"/>
</linearGradient>
</defs>
</svg>
