<svg width="21" height="26" viewBox="0 0 21 26" fill="none" xmlns="http://www.w3.org/2000/svg">
<path d="M18.724 9.18279L6.95779 0.818117C6.29659 0.34233 5.51494 0.0620124 4.70206 0.00915706C3.88918 -0.0436983 3.07782 0.133038 2.36057 0.519195C1.64172 0.910116 1.04247 1.48885 0.626758 2.19366C0.211046 2.89846 -0.00553824 3.7029 0.000111273 4.52115L0.000111273 21.2505C-0.00563055 22.0684 0.21094 22.8726 0.626687 23.577C1.04243 24.2814 1.64174 24.8596 2.36057 25.2499C3.07776 25.6358 3.88888 25.8126 4.70163 25.7603C5.51438 25.7079 6.29609 25.4284 6.95779 24.9535L18.724 16.5889C19.309 16.1647 19.7851 15.608 20.1135 14.9643C20.4418 14.3207 20.613 13.6084 20.613 12.8858C20.613 12.1633 20.4418 11.451 20.1135 10.8073C19.7851 10.1637 19.309 9.60695 18.724 9.18279Z" fill="#FFF6E9"/>
</svg>
