<svg width="58" height="81" viewBox="0 0 58 81" fill="none" xmlns="http://www.w3.org/2000/svg">
<path d="M36.5191 37.8359C36.4007 37.4579 36.2609 37.0979 36.1006 36.7599L35.6649 35.7649L18.0596 78.4079L18.9169 77.7089C19.865 76.9359 20.7621 75.8259 21.5214 74.4099L35.128 49.0299C37.0416 45.4629 37.5142 41.0049 36.5191 37.8359Z" fill="#332D3F"/>
<path d="M36.0967 36.9578C35.7793 35.9478 35.4384 35.0598 34.7434 34.3398L30.312 28.9188C29.6006 28.0488 28.7648 27.5269 27.8687 27.3279L23.3321 26.3218L9.16113 78.7359L13.6977 79.7418C16.1114 80.2768 18.9589 78.4628 20.949 74.7498L34.5546 49.3699C36.6754 45.4159 37.2 40.4718 36.0967 36.9578Z" fill="#332D3F"/>
<path d="M31.5595 35.9519C31.3993 35.4399 31.2319 34.9589 31.0155 34.5159C30.8053 34.0849 30.5481 33.6889 30.2062 33.3349L25.7748 27.9129C23.9581 25.6909 21.3239 25.7359 18.9684 27.6569L18.1111 28.3559L0.84668 69.1359L1.28145 70.1129C1.52537 70.7149 1.82952 71.2579 2.28368 71.7279L6.71816 77.1469C9.34416 80.3568 13.6827 78.8349 16.4128 73.7439L30.0194 48.3639C30.7083 47.0789 31.2288 45.6889 31.5799 44.2779C32.3066 41.3469 32.3035 38.3239 31.5595 35.9519Z" fill="#282230"/>
<path d="M24.2493 28.5869L28.6807 34.0089C29.2094 34.6549 29.6156 35.4589 29.9014 36.3689C30.8954 39.5379 30.4229 43.9959 28.5113 47.5619L14.9057 72.9419C12.444 77.5329 8.53005 78.9059 6.16226 76.0109L1.72777 70.5919C1.1991 69.9459 0.792902 69.1419 0.507135 68.2309C-0.487947 65.0609 -0.015403 60.5999 1.89617 57.0339L15.5038 31.6579C17.9644 27.0679 21.8805 25.6879 24.2493 28.5869Z" fill="#211D28"/>
<path opacity="0.6" d="M28.084 36.4958C28.0473 36.3798 27.9963 36.2778 27.9289 36.1958L22.4861 29.5428C22.185 29.1708 21.6859 29.3478 21.3736 29.9298C21.1317 30.3848 21.0705 30.9508 21.1971 31.3548C21.2338 31.4708 21.2859 31.5738 21.3542 31.6568L26.7971 38.3098C27.0971 38.6778 27.5972 38.5048 27.9085 37.9188C28.1504 37.4668 28.2106 36.8988 28.084 36.4958Z" fill="#19161E"/>
<path d="M27.3776 42.7029C27.3367 42.5719 27.2776 42.4559 27.202 42.3629L19.074 32.4249C18.7321 32.0049 18.1626 32.2039 17.8064 32.8719L7.35551 52.3639C7.07892 52.8789 7.00952 53.5229 7.1524 53.9809C7.19425 54.1139 7.25344 54.2309 7.33101 54.3239L15.457 64.2649C15.802 64.6819 16.3684 64.4859 16.7256 63.8209L27.1755 44.3249C27.4521 43.8089 27.5215 43.1629 27.3776 42.7029Z" fill="#638245"/>
<path d="M6.74421 58.5329C5.81853 57.3989 4.28457 57.9399 3.32113 59.7359C2.57201 61.1309 2.38831 62.8759 2.77817 64.1179C2.89044 64.4739 3.04965 64.7899 3.25581 65.0419C4.1815 66.1759 5.71648 65.6389 6.6789 63.8389C7.42802 62.4439 7.61172 60.6988 7.22186 59.4568C7.11061 59.1008 6.95139 58.7859 6.74421 58.5329Z" fill="#35771F"/>
<path d="M12.6846 65.7558C11.759 64.6218 10.225 65.1628 9.26156 66.9588C8.51244 68.3538 8.32874 70.0988 8.7186 71.3408C8.83087 71.6978 8.99008 72.0118 9.19624 72.2648C10.1219 73.3988 11.6559 72.8578 12.6193 71.0618C13.3684 69.6668 13.5522 67.9218 13.1623 66.6798C13.05 66.3238 12.8908 66.0098 12.6846 65.7558Z" fill="#992841"/>
<path d="M14.7977 44.5589C14.8773 44.6569 14.9386 44.7779 14.9824 44.9159C15.1335 45.3969 15.061 46.0759 14.7702 46.6149C14.3976 47.3109 13.8057 47.5189 13.4465 47.0809C13.3668 46.9829 13.3046 46.8619 13.2617 46.7239C13.1107 46.2429 13.1821 45.5639 13.4699 45.0249C13.8435 44.3319 14.4385 44.1209 14.7977 44.5589Z" fill="#1D1923"/>
<path d="M20.1514 51.1069C20.2311 51.2039 20.2923 51.3238 20.3352 51.4618C20.4852 51.9418 20.4137 52.6209 20.1239 53.1629C19.7534 53.8559 19.1574 54.0638 18.7981 53.6248C18.7185 53.5278 18.6573 53.4079 18.6144 53.2699C18.4644 52.7899 18.5358 52.1108 18.8257 51.5688C19.1962 50.8758 19.7922 50.6689 20.1514 51.1069Z" fill="#1D1923"/>
<path d="M13.43 42.7548L12.784 43.7469C12.6421 43.9789 12.6044 44.2879 12.6728 44.5059C12.6911 44.5659 12.7187 44.6179 12.7534 44.6609L12.8034 44.7259L13.1739 45.1779C13.179 45.1679 13.2841 44.9759 13.3423 44.8689C13.7893 44.0339 14.5027 43.7859 14.9293 44.3099C15.0252 44.4269 15.0997 44.5729 15.1508 44.7389C15.3314 45.3159 15.2457 46.1269 14.8997 46.7739C14.8415 46.8809 14.7374 47.0768 14.7323 47.0868L18.5381 51.7389C18.5432 51.7289 18.6483 51.5369 18.7065 51.4299C19.1535 50.5949 19.8669 50.3468 20.2935 50.8708C20.3895 50.9878 20.464 51.1339 20.515 51.2999C20.6957 51.8769 20.6099 52.6879 20.2639 53.3349C20.2047 53.4419 20.1017 53.6379 20.0966 53.6479L20.612 54.2789C20.7181 54.4069 20.8967 54.3268 20.9937 54.1078L21.6224 52.6749C21.7428 52.3999 21.7693 52.0819 21.6958 51.8479C21.6816 51.8009 21.6622 51.7579 21.6397 51.7189C21.1151 50.8019 19.9282 48.7289 19.8659 48.6189C19.8526 48.5769 19.4373 46.2059 19.4373 46.2059C19.425 46.1339 19.4087 46.0658 19.3883 46.0008C19.3413 45.8528 19.275 45.7249 19.1933 45.6269L16.897 42.8659C16.7827 42.7259 16.6204 42.6919 16.4561 42.7789L15.4273 43.2919L15.3671 43.2888L14.1751 42.4349C13.9526 42.2679 13.6474 42.3998 13.43 42.7548ZM17.4134 45.5709L17.9125 44.6409C17.9482 44.5779 18.0043 44.5548 18.0401 44.5988L19.0055 45.7808C19.0872 45.8798 19.1505 46.0039 19.1954 46.1489C19.227 46.2479 19.2495 46.3569 19.2627 46.4729L19.4138 47.8479C19.4281 47.9759 19.3189 48.0998 19.2587 48.0258L17.4114 45.7659C17.3787 45.6869 17.3859 45.6219 17.4134 45.5709ZM15.8938 43.6139L16.3949 43.2208C16.5878 43.0698 16.797 43.0788 16.9358 43.2498L17.8166 44.3269C17.8482 44.4059 17.8411 44.4709 17.8125 44.5249L17.3165 45.4519C17.2818 45.5189 17.2246 45.5379 17.1889 45.4939L15.8519 43.8599C15.8131 43.7569 15.8386 43.6549 15.8938 43.6139Z" fill="#1D1923"/>
<path d="M25.9029 33.7188C25.8263 33.6838 25.7447 33.6579 25.6722 33.6169C24.5169 32.9639 23.8811 31.6048 23.8811 29.7918C23.8811 25.2698 27.6604 19.4519 32.3061 16.8239C33.7584 16.0019 35.1485 15.5819 36.3395 15.5819C37.056 15.5819 37.702 15.7338 38.246 16.0418C39.4013 16.6948 40.0371 18.0539 40.0371 19.8679C40.0371 22.7289 38.5226 26.1059 36.2354 28.8679L37.5601 29.3879C39.8943 26.4379 41.4251 22.8949 41.4251 19.8679C41.4251 17.5479 40.5423 15.7718 38.94 14.8648C37.0499 13.7958 34.38 14.0809 31.6131 15.6469C26.5857 18.4909 22.4951 24.8368 22.4951 29.7918C22.4951 32.1108 23.3779 33.8879 24.9803 34.7949C25.659 35.1789 26.4438 35.3788 27.2929 35.4168L25.9029 33.7188Z" fill="#D6D3D0"/>
<path d="M42.2764 79.0348L42.2733 39.6668L41.0996 38.9988L41.1027 78.3668C41.1047 79.0298 41.3435 79.4958 41.7293 79.7158L42.903 80.3838C42.5172 80.1648 42.2784 79.6978 42.2764 79.0348Z" fill="#BAB7B5"/>
<path d="M48.7675 35.9929L42.2734 39.6669L42.2765 79.0349C42.2806 80.3708 43.2471 80.9069 44.431 80.2379L46.6314 78.9929C47.8183 78.3219 48.7757 76.6969 48.7716 75.3609L48.7675 35.9929Z" fill="#D6D3D0"/>
<path d="M46.8122 65.3918C47.3593 65.0828 47.8022 64.3308 47.8022 63.7118C47.8022 63.0928 47.3593 62.8428 46.8122 63.1518C46.2652 63.4608 45.8223 64.2128 45.8223 64.8318C45.8223 65.4498 46.2652 65.7008 46.8122 65.3918Z" fill="url(#paint0_linear_157_19787)"/>
<path d="M46.8122 66.8508C46.2652 67.1598 45.8223 67.9118 45.8223 68.5308C45.8223 69.1498 46.2652 69.3998 46.8122 69.0908C47.3593 68.7818 47.8022 68.0298 47.8022 67.4108C47.8022 66.7928 47.3593 66.5418 46.8122 66.8508Z" fill="url(#paint1_linear_157_19787)"/>
<path d="M46.8122 70.5509C46.2652 70.8599 45.8223 71.6119 45.8223 72.2309C45.8223 72.8499 46.2652 73.0999 46.8122 72.7909C47.3593 72.4819 47.8022 71.7299 47.8022 71.1109C47.8022 70.4919 47.3593 70.2419 46.8122 70.5509Z" fill="url(#paint2_linear_157_19787)"/>
<path d="M46.8122 74.2499C46.2652 74.5589 45.8223 75.3109 45.8223 75.9299C45.8223 76.5489 46.2652 76.7989 46.8122 76.4899C47.3593 76.1809 47.8022 75.4289 47.8022 74.8099C47.8022 74.1909 47.3593 73.9409 46.8122 74.2499Z" fill="url(#paint3_linear_157_19787)"/>
<path d="M47.9447 10.3178C47.613 10.3158 47.2598 10.4148 46.8853 10.6268C45.634 11.3348 37.2131 16.0988 35.9332 16.8218C30.9915 19.6168 29.8485 37.8418 33.0164 42.7988L33.69 43.8529L48.9755 10.3109L47.9447 10.3178Z" fill="#211D28"/>
<path d="M49.9291 10.5678C49.3147 10.2178 48.6105 10.2128 47.8196 10.6428C46.5693 11.3498 38.1474 16.1149 36.8686 16.8379C30.9991 20.2899 30.0571 42.2039 34.709 44.8529L38.7903 47.1768C34.1395 44.5288 35.0805 22.6149 40.9499 19.1619C42.2287 18.4389 50.6507 13.6738 51.9009 12.9668C52.6919 12.5368 53.3961 12.5419 54.0105 12.8919L49.9291 10.5678Z" fill="#211D28"/>
<path d="M55.1383 14.0528C54.3126 12.7488 53.2298 12.2438 51.902 12.9658C50.6507 13.6738 42.2298 18.4378 40.951 19.1608C40.4141 19.4768 39.9191 19.9458 39.465 20.5418C34.6263 26.8908 34.5294 47.5108 39.7905 47.4378L40.8254 47.4328L55.8068 15.1078L55.1383 14.0528Z" fill="#282230"/>
<path d="M52.8392 14.0178C58.9577 10.5558 59.4078 37.2238 52.9168 40.8958C51.641 41.6168 43.216 46.3838 41.9658 47.0908C35.4748 50.7628 35.7728 23.6718 41.8882 20.2128C43.166 19.4888 51.5879 14.7248 52.8392 14.0178Z" fill="#332D3F"/>
<path d="M52.182 18.6729C52.9403 18.2439 53.5547 17.2008 53.5527 16.3478C53.5496 15.4938 52.9322 15.1489 52.1739 15.5779C47.8731 18.0109 47.0219 18.4918 42.5619 21.0158C41.8036 21.4448 41.1933 22.4859 41.1953 23.3389C41.1974 24.1919 41.8128 24.5398 42.5711 24.1108C47.0444 21.5788 47.8659 21.1139 52.182 18.6729Z" fill="#1D1923"/>
<path d="M43.501 35.7358C43.501 38.5768 45.5371 39.7288 48.0477 38.3078C50.5594 36.8868 52.5945 33.4318 52.5945 30.5908C52.5945 27.7498 50.5584 26.5978 48.0477 28.0188C45.5371 29.4398 43.501 32.8948 43.501 35.7358Z" fill="#211D28"/>
<path d="M43.3262 35.4668C43.3262 38.2408 45.3133 39.3648 47.7658 37.9778C50.2172 36.5908 52.2054 33.2179 52.2054 30.4439C52.2054 27.6699 50.2183 26.5459 47.7658 27.9329C45.3133 29.3209 43.3262 32.6938 43.3262 35.4668Z" fill="#332D3F"/>
<path d="M41.8189 1.41883C39.052 -0.146165 36.3811 -0.431163 34.492 0.636837C32.8897 1.54384 32.0068 3.31984 32.0068 5.63984C32.0068 9.07084 33.9695 13.1668 36.8455 16.3068C37.1915 16.1108 37.6038 15.8778 38.0671 15.6158C35.3023 12.7048 33.3948 8.84884 33.3948 5.63984C33.3948 3.82684 34.0307 2.46784 35.186 1.81384C35.73 1.50584 36.375 1.35385 37.0925 1.35385C38.2835 1.35385 39.6736 1.77384 41.1259 2.59484C45.7716 5.22285 49.5509 11.0398 49.5509 15.5628C49.5509 17.3758 48.9151 18.7348 47.7598 19.3888C46.9647 19.8378 45.9502 19.9428 44.8143 19.7398C44.3101 20.0248 43.7549 20.3398 43.1232 20.6968C44.0795 21.0308 45.0031 21.2038 45.8614 21.2038C46.8208 21.2038 47.6995 20.9928 48.4527 20.5668C50.0551 19.6598 50.9379 17.8838 50.9379 15.5638C50.9379 10.6088 46.8473 4.26283 41.8189 1.41883Z" fill="#D6D3D0"/>
<defs>
<linearGradient id="paint0_linear_157_19787" x1="46.3173" y1="63.4315" x2="47.2772" y2="65.1284" gradientUnits="userSpaceOnUse">
<stop stop-color="#BAB7B5"/>
<stop offset="1" stop-color="#CDCAC7"/>
</linearGradient>
<linearGradient id="paint1_linear_157_19787" x1="46.3173" y1="67.131" x2="47.2772" y2="68.8279" gradientUnits="userSpaceOnUse">
<stop stop-color="#BAB7B5"/>
<stop offset="1" stop-color="#CDCAC7"/>
</linearGradient>
<linearGradient id="paint2_linear_157_19787" x1="46.3173" y1="70.8306" x2="47.2771" y2="72.5273" gradientUnits="userSpaceOnUse">
<stop stop-color="#BAB7B5"/>
<stop offset="1" stop-color="#CDCAC7"/>
</linearGradient>
<linearGradient id="paint3_linear_157_19787" x1="46.3173" y1="74.5301" x2="47.2771" y2="76.2268" gradientUnits="userSpaceOnUse">
<stop stop-color="#BAB7B5"/>
<stop offset="1" stop-color="#CDCAC7"/>
</linearGradient>
</defs>
</svg>
