<svg width="218" height="41" viewBox="0 0 218 41" fill="none" xmlns="http://www.w3.org/2000/svg">
<path d="M133.292 3.89453H128.496L119.152 17.5569L128.371 31.5287H133.265L124.442 17.5075L133.292 3.89453Z" fill="url(#paint0_linear_347_1601)"/>
<path d="M105.678 0.10083L112.978 11.7922L118.382 3.84302L125.862 3.83325L116.629 17.6409L130.438 39.7571L122.184 39.7346L112.22 24.2346L105.728 33.9446L97.9023 33.9709L108.478 18.4124L96.7051 0.0979004L105.678 0.10083Z" fill="url(#paint1_linear_347_1601)"/>
<path d="M9.80036 26.4172C8.20209 26.4172 6.82209 26.0694 5.66038 25.3739C4.50607 24.6783 3.61444 23.7053 2.98548 22.4548C2.36393 21.2043 2.05316 19.7503 2.05316 18.0928C2.05316 16.4354 2.36393 14.9814 2.98548 13.7309C3.61444 12.4804 4.50607 11.5073 5.66038 10.8118C6.82209 10.1163 8.20209 9.76848 9.80036 9.76848C11.6354 9.76848 13.1745 10.2235 14.4176 11.1337C15.6681 12.0438 16.5486 13.2758 17.0592 14.8297L14.018 15.6732C13.7221 14.7039 13.2226 13.9529 12.5197 13.4201C11.8167 12.8799 10.9103 12.6099 9.80036 12.6099C8.78664 12.6099 7.93941 12.8355 7.25866 13.2869C6.58531 13.7383 6.07845 14.3746 5.73807 15.196C5.3977 16.0173 5.22751 16.9829 5.22751 18.0928C5.22751 19.2028 5.3977 20.1684 5.73807 20.9897C6.07845 21.8111 6.58531 22.4474 7.25866 22.8988C7.93941 23.3501 8.78664 23.5758 9.80036 23.5758C10.9103 23.5758 11.8167 23.3057 12.5197 22.7656C13.2226 22.2254 13.7221 21.4744 14.018 20.5125L17.0592 21.356C16.5486 22.9099 15.6681 24.1419 14.4176 25.052C13.1745 25.9621 11.6354 26.4172 9.80036 26.4172ZM22.8328 26.4172C21.9745 26.4172 21.2457 26.2544 20.6463 25.9288C20.0544 25.5959 19.603 25.1556 19.2922 24.608C18.9888 24.0531 18.8372 23.4426 18.8372 22.7767C18.8372 22.2217 18.9222 21.7149 19.0924 21.2561C19.2626 20.7973 19.5364 20.3941 19.9138 20.0463C20.2985 19.6911 20.8128 19.3951 21.4566 19.1584C21.9005 18.9956 22.4296 18.8513 23.0437 18.7255C23.6579 18.5997 24.3534 18.4813 25.1304 18.3703C25.9073 18.2519 26.7619 18.1224 27.6943 17.9818L26.6066 18.5812C26.6066 17.8709 26.4364 17.3492 26.096 17.0162C25.7556 16.6832 25.1859 16.5168 24.3867 16.5168C23.9428 16.5168 23.4803 16.6241 22.9993 16.8386C22.5184 17.0532 22.1817 17.4343 21.9893 17.9818L19.2589 17.1161C19.5623 16.1246 20.1321 15.3181 20.9682 14.6965C21.8043 14.0749 22.9438 13.7642 24.3867 13.7642C25.4448 13.7642 26.3846 13.927 27.2059 14.2525C28.0272 14.5781 28.6488 15.1405 29.0706 15.9396C29.3073 16.3836 29.4479 16.8275 29.4923 17.2715C29.5367 17.7155 29.5589 18.2112 29.5589 18.7588V26.0842H26.9173V23.6202L27.2947 24.1308C26.7101 24.9373 26.0775 25.5219 25.3967 25.8844C24.7234 26.2396 23.8688 26.4172 22.8328 26.4172ZM23.4766 24.042C24.0316 24.042 24.4977 23.9458 24.8751 23.7534C25.2599 23.5536 25.5632 23.3279 25.7852 23.0764C26.0146 22.8248 26.17 22.6139 26.2514 22.4437C26.4068 22.1181 26.4956 21.7408 26.5178 21.3116C26.5474 20.875 26.5622 20.5125 26.5622 20.2239L27.4501 20.4459C26.5548 20.5938 25.8296 20.7196 25.2747 20.8232C24.7197 20.9194 24.272 21.0082 23.9317 21.0896C23.5913 21.171 23.2916 21.2598 23.0326 21.356C22.7367 21.4744 22.4962 21.6039 22.3112 21.7445C22.1336 21.8777 22.0004 22.0256 21.9116 22.1884C21.8302 22.3512 21.7895 22.5325 21.7895 22.7323C21.7895 23.0061 21.8561 23.2428 21.9893 23.4426C22.1299 23.635 22.326 23.783 22.5776 23.8866C22.8291 23.9902 23.1288 24.042 23.4766 24.042ZM32.4449 26.0842V14.0971H35.1087V17.0273L34.8201 16.65C34.9755 16.2356 35.1827 15.8582 35.4417 15.5178C35.7006 15.1775 36.0188 14.8963 36.3962 14.6743C36.6848 14.4967 36.9992 14.3598 37.3396 14.2636C37.68 14.16 38.0315 14.0971 38.394 14.0749C38.7566 14.0454 39.1192 14.0527 39.4817 14.0971V16.9163C39.1488 16.8127 38.7603 16.7794 38.3163 16.8164C37.8798 16.846 37.4839 16.9459 37.1287 17.1161C36.7736 17.2789 36.4739 17.4972 36.2297 17.771C35.9855 18.0373 35.8005 18.3555 35.6747 18.7255C35.5489 19.0881 35.486 19.4987 35.486 19.9575V26.0842H32.4449ZM45.8433 26.4172C44.3338 26.4172 43.1129 26.0768 42.1806 25.3961C41.2556 24.7079 40.6933 23.7386 40.4935 22.4881L43.5791 22.0219C43.7049 22.5843 43.9823 23.0246 44.4115 23.3427C44.8481 23.6609 45.3993 23.82 46.0653 23.82C46.6128 23.82 47.0346 23.7164 47.3306 23.5092C47.6266 23.2946 47.7745 22.9987 47.7745 22.6213C47.7745 22.3845 47.7153 22.1958 47.597 22.0552C47.4786 21.9072 47.2122 21.763 46.7978 21.6224C46.3908 21.4818 45.7545 21.2968 44.8888 21.0674C43.912 20.8158 43.1314 20.5347 42.5468 20.2239C41.9623 19.9131 41.5405 19.5431 41.2815 19.114C41.0226 18.6774 40.8931 18.152 40.8931 17.5379C40.8931 16.7683 41.0892 16.1024 41.4813 15.54C41.8735 14.9703 42.4248 14.5337 43.1351 14.2303C43.8528 13.9196 44.6964 13.7642 45.6657 13.7642C46.6054 13.7642 47.4379 13.9085 48.163 14.197C48.8882 14.4856 49.4727 14.8963 49.9167 15.429C50.368 15.9618 50.6455 16.5908 50.7491 17.3159L47.6636 17.8709C47.6118 17.4269 47.4194 17.0754 47.0864 16.8164C46.7534 16.5575 46.3021 16.4058 45.7323 16.3614C45.1773 16.3244 44.7297 16.3984 44.3893 16.5834C44.0563 16.7683 43.8898 17.0347 43.8898 17.3825C43.8898 17.5897 43.9601 17.7636 44.1007 17.9042C44.2487 18.0447 44.5484 18.189 44.9998 18.337C45.4585 18.485 46.1541 18.6774 47.0864 18.9142C47.9965 19.151 48.7254 19.4284 49.2729 19.7466C49.8279 20.0574 50.2312 20.4348 50.4827 20.8787C50.7343 21.3153 50.8601 21.8444 50.8601 22.4659C50.8601 23.6942 50.4161 24.6598 49.5282 25.3628C48.6403 26.0657 47.412 26.4172 45.8433 26.4172ZM60.4914 26.0842C59.6627 26.2396 58.8487 26.3062 58.0496 26.284C57.2578 26.2692 56.5475 26.1323 55.9185 25.8733C55.297 25.607 54.8234 25.1815 54.4979 24.5969C54.2019 24.0494 54.0465 23.4944 54.0317 22.9321C54.0169 22.3623 54.0095 21.7186 54.0095 21.0008V10.7674H57.0285V20.8232C57.0285 21.2894 57.0322 21.7112 57.0396 22.0885C57.0544 22.4585 57.132 22.7545 57.2726 22.9765C57.539 23.3982 57.9645 23.6276 58.549 23.6646C59.1336 23.7016 59.781 23.672 60.4914 23.5758V26.0842ZM51.9672 16.428V14.0971H60.4914V16.428H51.9672ZM67.9065 26.4172C66.7004 26.4172 65.6423 26.1471 64.7321 25.607C63.822 25.0668 63.1117 24.3232 62.6011 23.376C62.0979 22.4215 61.8464 21.3264 61.8464 20.0907C61.8464 18.8402 62.1053 17.7414 62.6233 16.7942C63.1413 15.8397 63.8553 15.0961 64.7654 14.5633C65.6756 14.0306 66.7226 13.7642 67.9065 13.7642C69.1126 13.7642 70.1707 14.0343 71.0808 14.5744C71.9984 15.1146 72.7124 15.8619 73.223 16.8164C73.7335 17.7636 73.9888 18.855 73.9888 20.0907C73.9888 21.3338 73.7298 22.4326 73.2119 23.3871C72.7013 24.3343 71.9873 25.0779 71.0697 25.6181C70.1596 26.1508 69.1052 26.4172 67.9065 26.4172ZM67.9065 23.598C68.8758 23.598 69.5973 23.2724 70.0708 22.6213C70.5518 21.9627 70.7923 21.1192 70.7923 20.0907C70.7923 19.0252 70.5481 18.1742 70.0597 17.5379C69.5788 16.9015 68.861 16.5834 67.9065 16.5834C67.2479 16.5834 66.7078 16.7313 66.286 17.0273C65.8642 17.3233 65.5498 17.734 65.3426 18.2593C65.1428 18.7847 65.0429 19.3951 65.0429 20.0907C65.0429 21.1636 65.2834 22.0182 65.7644 22.6546C66.2527 23.2835 66.9668 23.598 67.9065 23.598ZM81.7128 26.4172C80.4697 26.4172 79.4042 26.1397 78.5162 25.5848C77.6283 25.0298 76.9476 24.2751 76.474 23.3205C76.0004 22.366 75.7636 21.2894 75.7636 20.0907C75.7636 18.8772 76.0078 17.7932 76.4962 16.8386C76.992 15.8841 77.6875 15.1331 78.5828 14.5855C79.4782 14.038 80.5363 13.7642 81.7572 13.7642C83.1705 13.7642 84.3544 14.123 85.3089 14.8408C86.2708 15.5511 86.885 16.5242 87.1514 17.7599L84.1324 18.559C83.9548 17.9375 83.644 17.4528 83.2001 17.105C82.7635 16.7572 82.2678 16.5834 81.7128 16.5834C81.0764 16.5834 80.5548 16.7387 80.1478 17.0495C79.7408 17.3529 79.4412 17.771 79.2488 18.3037C79.0564 18.8291 78.9602 19.4247 78.9602 20.0907C78.9602 21.134 79.1896 21.9812 79.6484 22.6324C80.1145 23.2761 80.8027 23.598 81.7128 23.598C82.3935 23.598 82.9115 23.4426 83.2667 23.1319C83.6218 22.8211 83.8882 22.3771 84.0658 21.8L87.1514 22.4437C86.811 23.7164 86.1673 24.6968 85.2201 25.385C84.273 26.0731 83.1039 26.4172 81.7128 26.4172ZM89.3492 26.0842L89.3714 10.1015H92.4347V19.8687L96.497 14.0971H100.226L95.8977 20.0907L100.515 26.0842H96.5858L92.4347 20.3127V26.0842H89.3492Z" fill="#313131"/>
<path d="M5.77471 30.4675H6.42135L7.54565 33.2127H7.58704L8.71134 30.4675H9.35799V33.999H8.85102V31.4435H8.81825L7.77672 33.9939H7.35597L6.31444 31.4418H6.28168V33.999H5.77471V30.4675ZM11.8177 32.9006V31.3504H12.335V33.999H11.828V33.5403H11.8004C11.7395 33.6817 11.6418 33.7996 11.5073 33.8938C11.3739 33.987 11.2078 34.0335 11.0089 34.0335C10.8388 34.0335 10.6882 33.9961 10.5571 33.9214C10.4272 33.8456 10.3249 33.7335 10.2502 33.5852C10.1766 33.4369 10.1398 33.2535 10.1398 33.0351V31.3504H10.6554V32.973C10.6554 33.1535 10.7054 33.2972 10.8055 33.4041C10.9055 33.511 11.0354 33.5645 11.1952 33.5645C11.2917 33.5645 11.3877 33.5403 11.4831 33.4921C11.5797 33.4438 11.6596 33.3708 11.7228 33.2731C11.7872 33.1753 11.8188 33.0512 11.8177 32.9006ZM13.5919 30.4675V33.999H13.0763V30.4675H13.5919ZM15.5705 31.3504V31.7642H14.1237V31.3504H15.5705ZM14.5117 30.7158H15.0273V33.2213C15.0273 33.3213 15.0423 33.3966 15.0721 33.4472C15.102 33.4967 15.1405 33.5306 15.1877 33.549C15.236 33.5662 15.2883 33.5748 15.3446 33.5748C15.386 33.5748 15.4222 33.5719 15.4532 33.5662C15.4843 33.5605 15.5084 33.5559 15.5257 33.5524L15.6188 33.9783C15.5889 33.9898 15.5464 34.0013 15.4912 34.0128C15.436 34.0255 15.367 34.0324 15.2842 34.0335C15.1486 34.0358 15.0221 34.0117 14.9049 33.9611C14.7876 33.9105 14.6928 33.8323 14.6204 33.7266C14.5479 33.6208 14.5117 33.488 14.5117 33.3282V30.7158ZM16.1894 33.999V31.3504H16.705V33.999H16.1894ZM16.4498 30.9417C16.3601 30.9417 16.2831 30.9118 16.2187 30.852C16.1555 30.7911 16.1239 30.7187 16.1239 30.6347C16.1239 30.5497 16.1555 30.4772 16.2187 30.4175C16.2831 30.3565 16.3601 30.3261 16.4498 30.3261C16.5394 30.3261 16.6159 30.3565 16.6791 30.4175C16.7435 30.4772 16.7757 30.5497 16.7757 30.6347C16.7757 30.7187 16.7435 30.7911 16.6791 30.852C16.6159 30.9118 16.5394 30.9417 16.4498 30.9417ZM17.4886 33.999V30.4675H18.0042V31.7797H18.0352C18.0651 31.7246 18.1082 31.6608 18.1645 31.5883C18.2209 31.5159 18.299 31.4527 18.399 31.3986C18.4991 31.3435 18.6313 31.3159 18.7956 31.3159C19.0095 31.3159 19.2003 31.3699 19.3681 31.478C19.536 31.586 19.6676 31.7418 19.763 31.9453C19.8596 32.1488 19.9079 32.3936 19.9079 32.6799C19.9079 32.9661 19.8602 33.2116 19.7648 33.4162C19.6693 33.6197 19.5383 33.7766 19.3716 33.8869C19.2049 33.9961 19.0146 34.0508 18.8008 34.0508C18.6399 34.0508 18.5083 34.0237 18.4059 33.9697C18.3048 33.9157 18.2255 33.8525 18.168 33.78C18.1105 33.7076 18.0662 33.6432 18.0352 33.5869H17.9921V33.999H17.4886ZM17.9938 32.6747C17.9938 32.8609 18.0208 33.0242 18.0749 33.1644C18.1289 33.3047 18.2071 33.4145 18.3094 33.4938C18.4117 33.5719 18.537 33.611 18.6853 33.611C18.8393 33.611 18.9681 33.5702 19.0716 33.4886C19.175 33.4058 19.2532 33.2937 19.3061 33.1523C19.3601 33.0109 19.3871 32.8517 19.3871 32.6747C19.3871 32.5 19.3607 32.343 19.3078 32.2039C19.2561 32.0648 19.1779 31.955 19.0733 31.8746C18.9698 31.7941 18.8405 31.7539 18.6853 31.7539C18.5358 31.7539 18.4094 31.7924 18.3059 31.8694C18.2036 31.9464 18.126 32.0539 18.0731 32.1919C18.0202 32.3298 17.9938 32.4908 17.9938 32.6747ZM20.5354 33.999V31.3504H21.0338V31.7711H21.0613C21.1096 31.6286 21.1947 31.5165 21.3166 31.4349C21.4396 31.3521 21.5787 31.3107 21.7339 31.3107C21.766 31.3107 21.804 31.3119 21.8477 31.3142C21.8925 31.3164 21.9276 31.3193 21.9529 31.3228V31.8159C21.9322 31.8102 21.8954 31.8039 21.8425 31.797C21.7896 31.7889 21.7367 31.7849 21.6838 31.7849C21.562 31.7849 21.4534 31.8108 21.3579 31.8625C21.2637 31.9131 21.1889 31.9838 21.1338 32.0746C21.0786 32.1643 21.051 32.2666 21.051 32.3815V33.999H20.5354ZM23.1947 34.0577C23.0268 34.0577 22.8751 34.0266 22.7394 33.9645C22.6038 33.9013 22.4963 33.8099 22.417 33.6904C22.3388 33.5708 22.2997 33.4242 22.2997 33.2506C22.2997 33.1012 22.3285 32.9782 22.3859 32.8816C22.4434 32.7851 22.521 32.7086 22.6187 32.6523C22.7165 32.5959 22.8257 32.5534 22.9464 32.5247C23.0671 32.4959 23.1901 32.4741 23.3154 32.4591C23.474 32.4408 23.6028 32.4258 23.7017 32.4143C23.8005 32.4017 23.8724 32.3815 23.9172 32.354C23.962 32.3264 23.9845 32.2815 23.9845 32.2195V32.2074C23.9845 32.0568 23.9419 31.9401 23.8569 31.8573C23.7729 31.7746 23.6476 31.7332 23.4809 31.7332C23.3073 31.7332 23.1705 31.7717 23.0705 31.8487C22.9717 31.9246 22.9033 32.0091 22.8653 32.1022L22.3808 31.9918C22.4383 31.8309 22.5222 31.701 22.6325 31.6021C22.744 31.5021 22.8722 31.4297 23.0171 31.3849C23.1619 31.3389 23.3142 31.3159 23.474 31.3159C23.5798 31.3159 23.6919 31.3285 23.8103 31.3538C23.9298 31.378 24.0414 31.4228 24.1448 31.4883C24.2494 31.5538 24.3351 31.6475 24.4018 31.7694C24.4684 31.8901 24.5018 32.047 24.5018 32.2401V33.999H23.9983V33.6369H23.9776C23.9442 33.7036 23.8942 33.7691 23.8275 33.8335C23.7609 33.8979 23.6752 33.9513 23.5706 33.9939C23.466 34.0364 23.3407 34.0577 23.1947 34.0577ZM23.3068 33.6438C23.4493 33.6438 23.5712 33.6156 23.6723 33.5593C23.7747 33.503 23.8523 33.4294 23.9051 33.3386C23.9592 33.2466 23.9862 33.1483 23.9862 33.0437V32.7023C23.9678 32.7207 23.9321 32.7379 23.8793 32.754C23.8275 32.769 23.7683 32.7822 23.7017 32.7937C23.635 32.804 23.57 32.8138 23.5068 32.823C23.4436 32.831 23.3907 32.8379 23.3482 32.8437C23.2481 32.8563 23.1567 32.8776 23.074 32.9075C22.9924 32.9374 22.9268 32.9805 22.8774 33.0368C22.8291 33.092 22.805 33.1656 22.805 33.2575C22.805 33.3851 22.8521 33.4817 22.9464 33.5472C23.0406 33.6116 23.1608 33.6438 23.3068 33.6438ZM25.7527 32.4264V33.999H25.2371V31.3504H25.732V31.7815H25.7647C25.8257 31.6412 25.9211 31.5285 26.051 31.4435C26.182 31.3584 26.347 31.3159 26.5459 31.3159C26.7264 31.3159 26.8844 31.3538 27.0201 31.4297C27.1557 31.5044 27.2609 31.6159 27.3356 31.7642C27.4104 31.9125 27.4477 32.0959 27.4477 32.3143V33.999H26.9321V32.3764C26.9321 32.1844 26.8821 32.0344 26.7821 31.9263C26.6821 31.8171 26.5447 31.7625 26.37 31.7625C26.2504 31.7625 26.1441 31.7884 26.051 31.8401C25.959 31.8918 25.886 31.9677 25.832 32.0677C25.7791 32.1666 25.7527 32.2861 25.7527 32.4264ZM29.1793 34.0508C28.9655 34.0508 28.7746 33.9961 28.6068 33.8869C28.4401 33.7766 28.3091 33.6197 28.2136 33.4162C28.1194 33.2116 28.0722 32.9661 28.0722 32.6799C28.0722 32.3936 28.1199 32.1488 28.2154 31.9453C28.3119 31.7418 28.4441 31.586 28.612 31.478C28.7798 31.3699 28.9701 31.3159 29.1827 31.3159C29.3471 31.3159 29.4793 31.3435 29.5794 31.3986C29.6805 31.4527 29.7587 31.5159 29.8139 31.5883C29.8702 31.6608 29.9139 31.7246 29.9449 31.7797H29.976V30.4675H30.4916V33.999H29.988V33.5869H29.9449C29.9139 33.6432 29.8691 33.7076 29.8104 33.78C29.7529 33.8525 29.6736 33.9157 29.5725 33.9697C29.4713 34.0237 29.3402 34.0508 29.1793 34.0508ZM29.2931 33.611C29.4414 33.611 29.5667 33.5719 29.669 33.4938C29.7725 33.4145 29.8507 33.3047 29.9035 33.1644C29.9576 33.0242 29.9846 32.8609 29.9846 32.6747C29.9846 32.4908 29.9581 32.3298 29.9053 32.1919C29.8524 32.0539 29.7748 31.9464 29.6725 31.8694C29.5702 31.7924 29.4437 31.7539 29.2931 31.7539C29.1379 31.7539 29.0086 31.7941 28.9051 31.8746C28.8017 31.955 28.7235 32.0648 28.6706 32.2039C28.6189 32.343 28.593 32.5 28.593 32.6747C28.593 32.8517 28.6194 33.0109 28.6723 33.1523C28.7252 33.2937 28.8034 33.4058 28.9068 33.4886C29.0115 33.5702 29.1402 33.611 29.2931 33.611ZM32.651 33.999V30.4675H33.9098C34.1846 30.4675 34.4122 30.5175 34.5927 30.6175C34.7732 30.7175 34.9083 30.8543 34.9979 31.0279C35.0876 31.2003 35.1324 31.3946 35.1324 31.6107C35.1324 31.828 35.087 32.0234 34.9962 32.197C34.9065 32.3695 34.7709 32.5063 34.5893 32.6074C34.4088 32.7075 34.1817 32.7575 33.9081 32.7575H33.0425V32.3057H33.8598C34.0334 32.3057 34.1743 32.2758 34.2823 32.216C34.3904 32.1551 34.4697 32.0723 34.5203 31.9677C34.5709 31.8631 34.5962 31.7441 34.5962 31.6107C34.5962 31.4774 34.5709 31.359 34.5203 31.2555C34.4697 31.1521 34.3898 31.071 34.2806 31.0124C34.1725 30.9538 34.03 30.9244 33.8529 30.9244H33.1839V33.999H32.651ZM35.7643 33.999V31.3504H36.2626V31.7711H36.2902C36.3385 31.6286 36.4236 31.5165 36.5454 31.4349C36.6684 31.3521 36.8075 31.3107 36.9627 31.3107C36.9949 31.3107 37.0328 31.3119 37.0765 31.3142C37.1214 31.3164 37.1564 31.3193 37.1817 31.3228V31.8159C37.161 31.8102 37.1242 31.8039 37.0714 31.797C37.0185 31.7889 36.9656 31.7849 36.9127 31.7849C36.7909 31.7849 36.6822 31.8108 36.5868 31.8625C36.4925 31.9131 36.4178 31.9838 36.3626 32.0746C36.3075 32.1643 36.2799 32.2666 36.2799 32.3815V33.999H35.7643ZM38.7232 34.0525C38.4622 34.0525 38.2375 33.9967 38.0489 33.8852C37.8615 33.7726 37.7167 33.6145 37.6144 33.411C37.5132 33.2064 37.4626 32.9667 37.4626 32.6919C37.4626 32.4206 37.5132 32.1815 37.6144 31.9746C37.7167 31.7677 37.8592 31.6061 38.042 31.49C38.226 31.3739 38.4409 31.3159 38.687 31.3159C38.8364 31.3159 38.9812 31.3406 39.1215 31.39C39.2617 31.4395 39.3876 31.5171 39.4991 31.6228C39.6107 31.7286 39.6986 31.866 39.763 32.0349C39.8273 32.2028 39.8595 32.4068 39.8595 32.6471V32.8299H37.7541V32.4436H39.3543C39.3543 32.308 39.3267 32.1878 39.2715 32.0832C39.2163 31.9775 39.1387 31.8941 39.0387 31.8332C38.9399 31.7723 38.8238 31.7418 38.6904 31.7418C38.5456 31.7418 38.4191 31.7774 38.311 31.8487C38.2041 31.9188 38.1214 32.0108 38.0627 32.1246C38.0052 32.2373 37.9765 32.3597 37.9765 32.4919V32.7937C37.9765 32.9707 38.0075 33.1213 38.0696 33.2455C38.1328 33.3696 38.2208 33.4645 38.3335 33.53C38.4461 33.5944 38.5777 33.6266 38.7283 33.6266C38.8261 33.6266 38.9151 33.6128 38.9956 33.5852C39.0761 33.5564 39.1456 33.5139 39.2043 33.4576C39.2629 33.4012 39.3077 33.3317 39.3388 33.2489L39.8268 33.3369C39.7877 33.4806 39.7176 33.6064 39.6164 33.7145C39.5164 33.8214 39.3905 33.9048 39.2388 33.9645C39.0882 34.0232 38.9163 34.0525 38.7232 34.0525ZM41.5958 34.0525C41.3475 34.0525 41.1308 33.9956 40.9457 33.8818C40.7607 33.768 40.617 33.6087 40.5147 33.4041C40.4123 33.1995 40.3612 32.9604 40.3612 32.6868C40.3612 32.412 40.4123 32.1717 40.5147 31.966C40.617 31.7602 40.7607 31.6004 40.9457 31.4866C41.1308 31.3728 41.3475 31.3159 41.5958 31.3159C41.8442 31.3159 42.0609 31.3728 42.2459 31.4866C42.431 31.6004 42.5747 31.7602 42.677 31.966C42.7793 32.1717 42.8305 32.412 42.8305 32.6868C42.8305 32.9604 42.7793 33.1995 42.677 33.4041C42.5747 33.6087 42.431 33.768 42.2459 33.8818C42.0609 33.9956 41.8442 34.0525 41.5958 34.0525ZM41.5976 33.6197C41.7585 33.6197 41.8919 33.5771 41.9976 33.4921C42.1034 33.407 42.1816 33.2937 42.2321 33.1523C42.2839 33.0109 42.3097 32.8552 42.3097 32.685C42.3097 32.516 42.2839 32.3609 42.2321 32.2195C42.1816 32.0769 42.1034 31.9625 41.9976 31.8763C41.8919 31.7901 41.7585 31.747 41.5976 31.747C41.4355 31.747 41.301 31.7901 41.1941 31.8763C41.0883 31.9625 41.0095 32.0769 40.9578 32.2195C40.9072 32.3609 40.8819 32.516 40.8819 32.685C40.8819 32.8552 40.9072 33.0109 40.9578 33.1523C41.0095 33.2937 41.0883 33.407 41.1941 33.4921C41.301 33.5771 41.4355 33.6197 41.5976 33.6197ZM43.9482 33.999L43.1688 31.3504H43.7016L44.2206 33.2955H44.2465L44.7673 31.3504H45.3001L45.8174 33.2869H45.8433L46.3589 31.3504H46.8917L46.114 33.999H45.5881L45.0501 32.0867H45.0104L44.4724 33.999H43.9482ZM47.9452 32.4264V33.999H47.4296V31.3504H47.9245V31.7815H47.9572C48.0182 31.6412 48.1136 31.5285 48.2435 31.4435C48.3745 31.3584 48.5395 31.3159 48.7384 31.3159C48.9189 31.3159 49.0769 31.3538 49.2126 31.4297C49.3482 31.5044 49.4534 31.6159 49.5281 31.7642C49.6029 31.9125 49.6402 32.0959 49.6402 32.3143V33.999H49.1246V32.3764C49.1246 32.1844 49.0746 32.0344 48.9746 31.9263C48.8746 31.8171 48.7372 31.7625 48.5625 31.7625C48.4429 31.7625 48.3366 31.7884 48.2435 31.8401C48.1515 31.8918 48.0785 31.9677 48.0245 32.0677C47.9716 32.1666 47.9452 32.2861 47.9452 32.4264ZM51.5218 34.0525C51.2609 34.0525 51.0361 33.9967 50.8476 33.8852C50.6602 33.7726 50.5154 33.6145 50.413 33.411C50.3119 33.2064 50.2613 32.9667 50.2613 32.6919C50.2613 32.4206 50.3119 32.1815 50.413 31.9746C50.5154 31.7677 50.6579 31.6061 50.8407 31.49C51.0246 31.3739 51.2396 31.3159 51.4856 31.3159C51.6351 31.3159 51.7799 31.3406 51.9202 31.39C52.0604 31.4395 52.1863 31.5171 52.2978 31.6228C52.4093 31.7286 52.4972 31.866 52.5616 32.0349C52.626 32.2028 52.6582 32.4068 52.6582 32.6471V32.8299H50.5527V32.4436H52.1529C52.1529 32.308 52.1254 32.1878 52.0702 32.0832C52.015 31.9775 51.9374 31.8941 51.8374 31.8332C51.7385 31.7723 51.6224 31.7418 51.4891 31.7418C51.3442 31.7418 51.2178 31.7774 51.1097 31.8487C51.0028 31.9188 50.92 32.0108 50.8614 32.1246C50.8039 32.2373 50.7752 32.3597 50.7752 32.4919V32.7937C50.7752 32.9707 50.8062 33.1213 50.8683 33.2455C50.9315 33.3696 51.0194 33.4645 51.1321 33.53C51.2448 33.5944 51.3764 33.6266 51.527 33.6266C51.6247 33.6266 51.7138 33.6128 51.7943 33.5852C51.8747 33.5564 51.9443 33.5139 52.0029 33.4576C52.0616 33.4012 52.1064 33.3317 52.1374 33.2489L52.6254 33.3369C52.5863 33.4806 52.5162 33.6064 52.4151 33.7145C52.315 33.8214 52.1892 33.9048 52.0374 33.9645C51.8868 34.0232 51.715 34.0525 51.5218 34.0525ZM54.2703 34.0508C54.0565 34.0508 53.8657 33.9961 53.6978 33.8869C53.5312 33.7766 53.4001 33.6197 53.3047 33.4162C53.2104 33.2116 53.1633 32.9661 53.1633 32.6799C53.1633 32.3936 53.211 32.1488 53.3064 31.9453C53.403 31.7418 53.5352 31.586 53.703 31.478C53.8709 31.3699 54.0611 31.3159 54.2738 31.3159C54.4382 31.3159 54.5704 31.3435 54.6704 31.3986C54.7716 31.4527 54.8497 31.5159 54.9049 31.5883C54.9612 31.6608 55.0049 31.7246 55.036 31.7797H55.067V30.4675H55.5826V33.999H55.0791V33.5869H55.036C55.0049 33.6432 54.9601 33.7076 54.9015 33.78C54.844 33.8525 54.7647 33.9157 54.6635 33.9697C54.5623 34.0237 54.4313 34.0508 54.2703 34.0508ZM54.3841 33.611C54.5324 33.611 54.6578 33.5719 54.7601 33.4938C54.8635 33.4145 54.9417 33.3047 54.9946 33.1644C55.0486 33.0242 55.0756 32.8609 55.0756 32.6747C55.0756 32.4908 55.0492 32.3298 54.9963 32.1919C54.9434 32.0539 54.8658 31.9464 54.7635 31.8694C54.6612 31.7924 54.5347 31.7539 54.3841 31.7539C54.229 31.7539 54.0996 31.7941 53.9962 31.8746C53.8927 31.955 53.8145 32.0648 53.7616 32.2039C53.7099 32.343 53.684 32.5 53.684 32.6747C53.684 32.8517 53.7105 33.0109 53.7634 33.1523C53.8162 33.2937 53.8944 33.4058 53.9979 33.4886C54.1025 33.5702 54.2313 33.611 54.3841 33.611ZM60.6753 31.6159H60.1373C60.1166 31.501 60.0781 31.3998 60.0217 31.3124C59.9654 31.2251 59.8964 31.1509 59.8148 31.09C59.7332 31.0291 59.6418 30.9831 59.5406 30.952C59.4406 30.921 59.3343 30.9055 59.2216 30.9055C59.0181 30.9055 58.8359 30.9566 58.675 31.0589C58.5152 31.1613 58.3887 31.3113 58.2956 31.509C58.2036 31.7067 58.1577 31.9482 58.1577 32.2332C58.1577 32.5206 58.2036 32.7632 58.2956 32.9609C58.3887 33.1587 58.5158 33.3081 58.6767 33.4093C58.8376 33.5104 59.0187 33.561 59.2199 33.561C59.3314 33.561 59.4372 33.5461 59.5372 33.5162C59.6383 33.4852 59.7297 33.4397 59.8113 33.38C59.893 33.3202 59.9619 33.2472 60.0183 33.161C60.0758 33.0736 60.1154 32.9736 60.1373 32.8609L60.6753 32.8627C60.6465 33.0362 60.5908 33.196 60.508 33.342C60.4264 33.4869 60.3212 33.6122 60.1924 33.7179C60.0648 33.8226 59.9188 33.9036 59.7544 33.9611C59.5901 34.0186 59.4107 34.0473 59.2164 34.0473C58.9106 34.0473 58.6382 33.9749 58.3991 33.83C58.16 33.684 57.9714 33.4754 57.8335 33.2041C57.6967 32.9328 57.6283 32.6092 57.6283 32.2332C57.6283 31.8562 57.6972 31.5326 57.8352 31.2624C57.9732 30.9911 58.1617 30.783 58.4008 30.6382C58.6399 30.4922 58.9118 30.4192 59.2164 30.4192C59.4038 30.4192 59.5786 30.4462 59.7406 30.5002C59.9039 30.5531 60.0505 30.6313 60.1804 30.7348C60.3103 30.8371 60.4178 30.9624 60.5028 31.1107C60.5879 31.2578 60.6454 31.4262 60.6753 31.6159ZM62.0908 34.0577C61.923 34.0577 61.7712 34.0266 61.6356 33.9645C61.4999 33.9013 61.3925 33.8099 61.3131 33.6904C61.235 33.5708 61.1959 33.4242 61.1959 33.2506C61.1959 33.1012 61.2246 32.9782 61.2821 32.8816C61.3396 32.7851 61.4172 32.7086 61.5149 32.6523C61.6126 32.5959 61.7218 32.5534 61.8425 32.5247C61.9632 32.4959 62.0862 32.4741 62.2115 32.4591C62.3702 32.4408 62.4989 32.4258 62.5978 32.4143C62.6967 32.4017 62.7685 32.3815 62.8134 32.354C62.8582 32.3264 62.8806 32.2815 62.8806 32.2195V32.2074C62.8806 32.0568 62.8381 31.9401 62.753 31.8573C62.6691 31.7746 62.5438 31.7332 62.3771 31.7332C62.2035 31.7332 62.0667 31.7717 61.9667 31.8487C61.8678 31.9246 61.7994 32.0091 61.7615 32.1022L61.2769 31.9918C61.3344 31.8309 61.4183 31.701 61.5287 31.6021C61.6402 31.5021 61.7684 31.4297 61.9132 31.3849C62.0581 31.3389 62.2104 31.3159 62.3702 31.3159C62.4759 31.3159 62.588 31.3285 62.7064 31.3538C62.826 31.378 62.9375 31.4228 63.041 31.4883C63.1456 31.5538 63.2312 31.6475 63.2979 31.7694C63.3646 31.8901 63.3979 32.047 63.3979 32.2401V33.999H62.8944V33.6369H62.8737C62.8404 33.7036 62.7904 33.7691 62.7237 33.8335C62.657 33.8979 62.5714 33.9513 62.4668 33.9939C62.3621 34.0364 62.2368 34.0577 62.0908 34.0577ZM62.2029 33.6438C62.3455 33.6438 62.4673 33.6156 62.5685 33.5593C62.6708 33.503 62.7484 33.4294 62.8013 33.3386C62.8553 33.2466 62.8823 33.1483 62.8823 33.0437V32.7023C62.8639 32.7207 62.8283 32.7379 62.7754 32.754C62.7237 32.769 62.6645 32.7822 62.5978 32.7937C62.5311 32.804 62.4662 32.8138 62.4029 32.823C62.3397 32.831 62.2868 32.8379 62.2443 32.8437C62.1443 32.8563 62.0529 32.8776 61.9701 32.9075C61.8885 32.9374 61.823 32.9805 61.7735 33.0368C61.7253 33.092 61.7011 33.1656 61.7011 33.2575C61.7011 33.3851 61.7483 33.4817 61.8425 33.5472C61.9368 33.6116 62.0569 33.6438 62.2029 33.6438ZM64.1332 33.999V31.3504H64.6316V31.7711H64.6592C64.7074 31.6286 64.7925 31.5165 64.9144 31.4349C65.0374 31.3521 65.1765 31.3107 65.3317 31.3107C65.3639 31.3107 65.4018 31.3119 65.4455 31.3142C65.4903 31.3164 65.5254 31.3193 65.5507 31.3228V31.8159C65.53 31.8102 65.4932 31.8039 65.4403 31.797C65.3874 31.7889 65.3345 31.7849 65.2817 31.7849C65.1598 31.7849 65.0512 31.8108 64.9558 31.8625C64.8615 31.9131 64.7868 31.9838 64.7316 32.0746C64.6764 32.1643 64.6488 32.2666 64.6488 32.3815V33.999H64.1332ZM68.0302 31.997L67.5629 32.0798C67.5433 32.02 67.5123 31.9631 67.4698 31.9091C67.4284 31.855 67.372 31.8108 67.3008 31.7763C67.2295 31.7418 67.1404 31.7246 67.0335 31.7246C66.8875 31.7246 66.7656 31.7573 66.6679 31.8228C66.5702 31.8872 66.5213 31.9706 66.5213 32.0729C66.5213 32.1614 66.5541 32.2327 66.6196 32.2867C66.6852 32.3407 66.7909 32.385 66.9369 32.4195L67.3577 32.516C67.6014 32.5724 67.783 32.6592 67.9026 32.7764C68.0221 32.8937 68.0819 33.046 68.0819 33.2334C68.0819 33.392 68.0359 33.5334 67.944 33.6576C67.8531 33.7806 67.7261 33.8772 67.5629 33.9473C67.4008 34.0174 67.2128 34.0525 66.999 34.0525C66.7024 34.0525 66.4604 33.9893 66.273 33.8628C66.0856 33.7352 65.9707 33.5541 65.9282 33.3196L66.4265 33.2437C66.4575 33.3736 66.5213 33.4719 66.6179 33.5386C66.7145 33.6041 66.8404 33.6369 66.9955 33.6369C67.1645 33.6369 67.2996 33.6018 67.4008 33.5317C67.5019 33.4604 67.5525 33.3736 67.5525 33.2713C67.5525 33.1886 67.5215 33.119 67.4594 33.0627C67.3985 33.0064 67.3048 32.9638 67.1783 32.9351L66.73 32.8368C66.4828 32.7805 66.3 32.6908 66.1816 32.5678C66.0644 32.4448 66.0057 32.289 66.0057 32.1005C66.0057 31.9441 66.0494 31.8073 66.1368 31.6901C66.2242 31.5728 66.3449 31.4814 66.4989 31.4159C66.653 31.3492 66.8294 31.3159 67.0283 31.3159C67.3146 31.3159 67.5399 31.378 67.7043 31.5021C67.8687 31.6251 67.9773 31.7901 68.0302 31.997ZM71.9986 31.3952C71.9802 31.232 71.9043 31.1055 71.7709 31.0158C71.6376 30.925 71.4697 30.8796 71.2674 30.8796C71.1226 30.8796 70.9973 30.9026 70.8915 30.9486C70.7857 30.9934 70.7035 31.0555 70.6449 31.1348C70.5874 31.213 70.5587 31.3021 70.5587 31.4021C70.5587 31.486 70.5782 31.5584 70.6173 31.6194C70.6576 31.6803 70.7099 31.7315 70.7742 31.7728C70.8398 31.8131 70.9099 31.847 70.9846 31.8746C71.0593 31.901 71.1312 31.9229 71.2002 31.9401L71.545 32.0298C71.6577 32.0574 71.7732 32.0947 71.8916 32.1419C72.0101 32.189 72.1198 32.2511 72.221 32.3281C72.3222 32.4051 72.4038 32.5005 72.4659 32.6143C72.5291 32.7281 72.5607 32.8644 72.5607 33.023C72.5607 33.223 72.509 33.4007 72.4055 33.5559C72.3032 33.7111 72.1543 33.8335 71.9589 33.9232C71.7646 34.0128 71.5295 34.0577 71.2536 34.0577C70.9892 34.0577 70.7604 34.0157 70.5673 33.9318C70.3742 33.8479 70.223 33.7289 70.1138 33.5748C70.0046 33.4196 69.9442 33.2357 69.9327 33.023H70.4673C70.4776 33.1506 70.519 33.257 70.5915 33.342C70.665 33.426 70.7587 33.4886 70.8725 33.53C70.9875 33.5702 71.1134 33.5903 71.2502 33.5903C71.4008 33.5903 71.5347 33.5668 71.652 33.5196C71.7704 33.4714 71.8635 33.4047 71.9313 33.3196C71.9991 33.2334 72.033 33.1328 72.033 33.0178C72.033 32.9132 72.0032 32.8276 71.9434 32.7609C71.8847 32.6942 71.8048 32.6391 71.7037 32.5954C71.6037 32.5517 71.4904 32.5132 71.364 32.4798L70.9467 32.366C70.6639 32.289 70.4397 32.1758 70.2742 32.0263C70.1098 31.8769 70.0276 31.6791 70.0276 31.4331C70.0276 31.2297 70.0828 31.052 70.1931 30.9003C70.3035 30.7486 70.4529 30.6307 70.6415 30.5468C70.83 30.4617 71.0427 30.4192 71.2795 30.4192C71.5186 30.4192 71.7296 30.4612 71.9123 30.5451C72.0963 30.629 72.2411 30.7445 72.3469 30.8917C72.4526 31.0377 72.5078 31.2055 72.5124 31.3952H71.9986ZM74.8824 32.9006V31.3504H75.3998V33.999H74.8928V33.5403H74.8652C74.8043 33.6817 74.7065 33.7996 74.572 33.8938C74.4387 33.987 74.2726 34.0335 74.0737 34.0335C73.9036 34.0335 73.753 33.9961 73.6219 33.9214C73.492 33.8456 73.3897 33.7335 73.315 33.5852C73.2414 33.4369 73.2046 33.2535 73.2046 33.0351V31.3504H73.7202V32.973C73.7202 33.1535 73.7702 33.2972 73.8702 33.4041C73.9702 33.511 74.1001 33.5645 74.2599 33.5645C74.3565 33.5645 74.4525 33.5403 74.5479 33.4921C74.6445 33.4438 74.7244 33.3708 74.7876 33.2731C74.852 33.1753 74.8836 33.0512 74.8824 32.9006ZM76.1411 34.9923V31.3504H76.6446V31.7797H76.6877C76.7176 31.7246 76.7607 31.6608 76.817 31.5883C76.8734 31.5159 76.9515 31.4527 77.0516 31.3986C77.1516 31.3435 77.2838 31.3159 77.4482 31.3159C77.662 31.3159 77.8528 31.3699 78.0207 31.478C78.1885 31.586 78.3201 31.7418 78.4155 31.9453C78.5121 32.1488 78.5604 32.3936 78.5604 32.6799C78.5604 32.9661 78.5127 33.2116 78.4173 33.4162C78.3219 33.6197 78.1908 33.7766 78.0241 33.8869C77.8574 33.9961 77.6672 34.0508 77.4533 34.0508C77.2924 34.0508 77.1608 34.0237 77.0585 33.9697C76.9573 33.9157 76.878 33.8525 76.8205 33.78C76.763 33.7076 76.7188 33.6432 76.6877 33.5869H76.6567V34.9923H76.1411ZM76.6463 32.6747C76.6463 32.8609 76.6733 33.0242 76.7274 33.1644C76.7814 33.3047 76.8596 33.4145 76.9619 33.4938C77.0642 33.5719 77.1895 33.611 77.3378 33.611C77.4919 33.611 77.6206 33.5702 77.7241 33.4886C77.8275 33.4058 77.9057 33.2937 77.9586 33.1523C78.0126 33.0109 78.0396 32.8517 78.0396 32.6747C78.0396 32.5 78.0132 32.343 77.9603 32.2039C77.9086 32.0648 77.8304 31.955 77.7258 31.8746C77.6223 31.7941 77.493 31.7539 77.3378 31.7539C77.1884 31.7539 77.0619 31.7924 76.9584 31.8694C76.8561 31.9464 76.7785 32.0539 76.7256 32.1919C76.6728 32.3298 76.6463 32.4908 76.6463 32.6747ZM80.3282 34.0525C80.0672 34.0525 79.8425 33.9967 79.6539 33.8852C79.4666 33.7726 79.3217 33.6145 79.2194 33.411C79.1182 33.2064 79.0676 32.9667 79.0676 32.6919C79.0676 32.4206 79.1182 32.1815 79.2194 31.9746C79.3217 31.7677 79.4643 31.6061 79.647 31.49C79.831 31.3739 80.0459 31.3159 80.292 31.3159C80.4414 31.3159 80.5863 31.3406 80.7265 31.39C80.8668 31.4395 80.9926 31.5171 81.1041 31.6228C81.2157 31.7286 81.3036 31.866 81.368 32.0349C81.4324 32.2028 81.4645 32.4068 81.4645 32.6471V32.8299H79.3591V32.4436H80.9593C80.9593 32.308 80.9317 32.1878 80.8765 32.0832C80.8213 31.9775 80.7438 31.8941 80.6437 31.8332C80.5449 31.7723 80.4288 31.7418 80.2954 31.7418C80.1506 31.7418 80.0241 31.7774 79.916 31.8487C79.8091 31.9188 79.7264 32.0108 79.6677 32.1246C79.6103 32.2373 79.5815 32.3597 79.5815 32.4919V32.7937C79.5815 32.9707 79.6126 33.1213 79.6746 33.2455C79.7379 33.3696 79.8258 33.4645 79.9385 33.53C80.0511 33.5944 80.1828 33.6266 80.3333 33.6266C80.4311 33.6266 80.5202 33.6128 80.6006 33.5852C80.6811 33.5564 80.7506 33.5139 80.8093 33.4576C80.8679 33.4012 80.9127 33.3317 80.9438 33.2489L81.4318 33.3369C81.3927 33.4806 81.3226 33.6064 81.2214 33.7145C81.1214 33.8214 80.9955 33.9048 80.8438 33.9645C80.6932 34.0232 80.5213 34.0525 80.3282 34.0525ZM82.0852 33.999V31.3504H82.5835V31.7711H82.6111C82.6594 31.6286 82.7445 31.5165 82.8663 31.4349C82.9893 31.3521 83.1284 31.3107 83.2836 31.3107C83.3158 31.3107 83.3537 31.3119 83.3974 31.3142C83.4423 31.3164 83.4773 31.3193 83.5026 31.3228V31.8159C83.4819 31.8102 83.4451 31.8039 83.3923 31.797C83.3394 31.7889 83.2865 31.7849 83.2336 31.7849C83.1118 31.7849 83.0031 31.8108 82.9077 31.8625C82.8134 31.9131 82.7387 31.9838 82.6835 32.0746C82.6284 32.1643 82.6008 32.2666 82.6008 32.3815V33.999H82.0852ZM85.9821 31.997L85.5148 32.0798C85.4953 32.02 85.4642 31.9631 85.4217 31.9091C85.3803 31.855 85.324 31.8108 85.2527 31.7763C85.1814 31.7418 85.0924 31.7246 84.9854 31.7246C84.8394 31.7246 84.7176 31.7573 84.6199 31.8228C84.5222 31.8872 84.4733 31.9706 84.4733 32.0729C84.4733 32.1614 84.5061 32.2327 84.5716 32.2867C84.6371 32.3407 84.7429 32.385 84.8889 32.4195L85.3096 32.516C85.5533 32.5724 85.735 32.6592 85.8545 32.7764C85.9741 32.8937 86.0339 33.046 86.0339 33.2334C86.0339 33.392 85.9879 33.5334 85.8959 33.6576C85.8051 33.7806 85.6781 33.8772 85.5148 33.9473C85.3527 34.0174 85.1648 34.0525 84.951 34.0525C84.6544 34.0525 84.4124 33.9893 84.225 33.8628C84.0376 33.7352 83.9226 33.5541 83.8801 33.3196L84.3785 33.2437C84.4095 33.3736 84.4733 33.4719 84.5699 33.5386C84.6664 33.6041 84.7923 33.6369 84.9475 33.6369C85.1165 33.6369 85.2516 33.6018 85.3527 33.5317C85.4539 33.4604 85.5045 33.3736 85.5045 33.2713C85.5045 33.1886 85.4734 33.119 85.4114 33.0627C85.3504 33.0064 85.2567 32.9638 85.1303 32.9351L84.6819 32.8368C84.4348 32.7805 84.252 32.6908 84.1336 32.5678C84.0163 32.4448 83.9577 32.289 83.9577 32.1005C83.9577 31.9441 84.0014 31.8073 84.0888 31.6901C84.1761 31.5728 84.2968 31.4814 84.4509 31.4159C84.6049 31.3492 84.7814 31.3159 84.9803 31.3159C85.2665 31.3159 85.4918 31.378 85.6562 31.5021C85.8206 31.6251 85.9293 31.7901 85.9821 31.997ZM87.8857 31.3504V31.7642H86.4389V31.3504H87.8857ZM86.8269 30.7158H87.3425V33.2213C87.3425 33.3213 87.3575 33.3966 87.3874 33.4472C87.4172 33.4967 87.4558 33.5306 87.5029 33.549C87.5512 33.5662 87.6035 33.5748 87.6598 33.5748C87.7012 33.5748 87.7374 33.5719 87.7684 33.5662C87.7995 33.5605 87.8236 33.5559 87.8409 33.5524L87.934 33.9783C87.9041 33.9898 87.8616 34.0013 87.8064 34.0128C87.7512 34.0255 87.6822 34.0324 87.5995 34.0335C87.4638 34.0358 87.3374 34.0117 87.2201 33.9611C87.1028 33.9105 87.008 33.8323 86.9356 33.7266C86.8631 33.6208 86.8269 33.488 86.8269 33.3282V30.7158ZM89.5918 34.0525C89.3435 34.0525 89.1268 33.9956 88.9417 33.8818C88.7566 33.768 88.613 33.6087 88.5106 33.4041C88.4083 33.1995 88.3572 32.9604 88.3572 32.6868C88.3572 32.412 88.4083 32.1717 88.5106 31.966C88.613 31.7602 88.7566 31.6004 88.9417 31.4866C89.1268 31.3728 89.3435 31.3159 89.5918 31.3159C89.8401 31.3159 90.0568 31.3728 90.2419 31.4866C90.427 31.6004 90.5707 31.7602 90.673 31.966C90.7753 32.1717 90.8265 32.412 90.8265 32.6868C90.8265 32.9604 90.7753 33.1995 90.673 33.4041C90.5707 33.6087 90.427 33.768 90.2419 33.8818C90.0568 33.9956 89.8401 34.0525 89.5918 34.0525ZM89.5936 33.6197C89.7545 33.6197 89.8878 33.5771 89.9936 33.4921C90.0994 33.407 90.1775 33.2937 90.2281 33.1523C90.2799 33.0109 90.3057 32.8552 90.3057 32.685C90.3057 32.516 90.2799 32.3609 90.2281 32.2195C90.1775 32.0769 90.0994 31.9625 89.9936 31.8763C89.8878 31.7901 89.7545 31.747 89.5936 31.747C89.4315 31.747 89.297 31.7901 89.19 31.8763C89.0843 31.9625 89.0055 32.0769 88.9538 32.2195C88.9032 32.3609 88.8779 32.516 88.8779 32.685C88.8779 32.8552 88.9032 33.0109 88.9538 33.1523C89.0055 33.2937 89.0843 33.407 89.19 33.4921C89.297 33.5771 89.4315 33.6197 89.5936 33.6197ZM91.4506 33.999V31.3504H91.9489V31.7711H91.9765C92.0248 31.6286 92.1099 31.5165 92.2317 31.4349C92.3547 31.3521 92.4938 31.3107 92.649 31.3107C92.6812 31.3107 92.7191 31.3119 92.7628 31.3142C92.8077 31.3164 92.8427 31.3193 92.868 31.3228V31.8159C92.8473 31.8102 92.8105 31.8039 92.7577 31.797C92.7048 31.7889 92.6519 31.7849 92.599 31.7849C92.4772 31.7849 92.3685 31.8108 92.2731 31.8625C92.1788 31.9131 92.1041 31.9838 92.0489 32.0746C91.9938 32.1643 91.9662 32.2666 91.9662 32.3815V33.999H91.4506ZM94.4095 34.0525C94.1485 34.0525 93.9238 33.9967 93.7352 33.8852C93.5478 33.7726 93.403 33.6145 93.3007 33.411C93.1995 33.2064 93.1489 32.9667 93.1489 32.6919C93.1489 32.4206 93.1995 32.1815 93.3007 31.9746C93.403 31.7677 93.5455 31.6061 93.7283 31.49C93.9123 31.3739 94.1272 31.3159 94.3733 31.3159C94.5227 31.3159 94.6675 31.3406 94.8078 31.39C94.948 31.4395 95.0739 31.5171 95.1854 31.6228C95.297 31.7286 95.3849 31.866 95.4493 32.0349C95.5136 32.2028 95.5458 32.4068 95.5458 32.6471V32.8299H93.4404V32.4436H95.0406C95.0406 32.308 95.013 32.1878 94.9578 32.0832C94.9026 31.9775 94.825 31.8941 94.725 31.8332C94.6262 31.7723 94.5101 31.7418 94.3767 31.7418C94.2319 31.7418 94.1054 31.7774 93.9973 31.8487C93.8904 31.9188 93.8077 32.0108 93.749 32.1246C93.6915 32.2373 93.6628 32.3597 93.6628 32.4919V32.7937C93.6628 32.9707 93.6938 33.1213 93.7559 33.2455C93.8191 33.3696 93.9071 33.4645 94.0198 33.53C94.1324 33.5944 94.264 33.6266 94.4146 33.6266C94.5124 33.6266 94.6014 33.6128 94.6819 33.5852C94.7624 33.5564 94.8319 33.5139 94.8906 33.4576C94.9492 33.4012 94.994 33.3317 95.0251 33.2489L95.5131 33.3369C95.474 33.4806 95.4039 33.6064 95.3027 33.7145C95.2027 33.8214 95.0768 33.9048 94.9251 33.9645C94.7745 34.0232 94.6026 34.0525 94.4095 34.0525Z" fill="#474747"/>
<path d="M136.839 26.4172C135.596 26.4172 134.53 26.1397 133.642 25.5848C132.755 25.0298 132.074 24.2751 131.6 23.3205C131.127 22.366 130.89 21.2894 130.89 20.0907C130.89 18.8772 131.134 17.7932 131.622 16.8386C132.118 15.8841 132.814 15.1331 133.709 14.5855C134.604 14.038 135.663 13.7642 136.883 13.7642C138.297 13.7642 139.481 14.123 140.435 14.8408C141.397 15.5511 142.011 16.5242 142.278 17.7599L139.259 18.559C139.081 17.9375 138.77 17.4528 138.326 17.105C137.89 16.7572 137.394 16.5834 136.839 16.5834C136.203 16.5834 135.681 16.7387 135.274 17.0495C134.867 17.3529 134.567 17.771 134.375 18.3037C134.183 18.8291 134.086 19.4247 134.086 20.0907C134.086 21.134 134.316 21.9812 134.775 22.6324C135.241 23.2761 135.929 23.598 136.839 23.598C137.52 23.598 138.038 23.4426 138.393 23.1319C138.748 22.8211 139.014 22.3771 139.192 21.8L142.278 22.4437C141.937 23.7164 141.293 24.6968 140.346 25.385C139.399 26.0731 138.23 26.4172 136.839 26.4172ZM152.667 26.0842V20.4237C152.667 20.1499 152.652 19.8021 152.622 19.3803C152.593 18.9512 152.5 18.522 152.345 18.0928C152.189 17.6637 151.934 17.3048 151.579 17.0162C151.231 16.7276 150.735 16.5834 150.092 16.5834C149.833 16.5834 149.555 16.6241 149.259 16.7054C148.963 16.7868 148.686 16.9459 148.427 17.1827C148.168 17.4121 147.953 17.7525 147.783 18.2038C147.62 18.6552 147.539 19.2546 147.539 20.0019L145.807 19.1806C145.807 18.2334 146 17.3455 146.384 16.5168C146.769 15.688 147.346 15.0184 148.116 14.5078C148.893 13.9973 149.87 13.742 151.046 13.742C151.986 13.742 152.752 13.9011 153.344 14.2192C153.936 14.5374 154.394 14.9407 154.72 15.429C155.053 15.9174 155.29 16.428 155.43 16.9607C155.571 17.4861 155.656 17.967 155.686 18.4036C155.715 18.8402 155.73 19.1584 155.73 19.3581V26.0842H152.667ZM144.475 26.0842V10.1015H147.161V18.3148H147.539V26.0842H144.475ZM161.94 26.4172C161.081 26.4172 160.353 26.2544 159.753 25.9288C159.161 25.5959 158.71 25.1556 158.399 24.608C158.096 24.0531 157.944 23.4426 157.944 22.7767C157.944 22.2217 158.029 21.7149 158.199 21.2561C158.37 20.7973 158.643 20.3941 159.021 20.0463C159.405 19.6911 159.92 19.3951 160.563 19.1584C161.007 18.9956 161.536 18.8513 162.151 18.7255C162.765 18.5997 163.46 18.4813 164.237 18.3703C165.014 18.2519 165.869 18.1224 166.801 17.9818L165.713 18.5812C165.713 17.8709 165.543 17.3492 165.203 17.0162C164.863 16.6832 164.293 16.5168 163.494 16.5168C163.05 16.5168 162.587 16.6241 162.106 16.8386C161.625 17.0532 161.289 17.4343 161.096 17.9818L158.366 17.1161C158.669 16.1246 159.239 15.3181 160.075 14.6965C160.911 14.0749 162.051 13.7642 163.494 13.7642C164.552 13.7642 165.491 13.927 166.313 14.2525C167.134 14.5781 167.756 15.1405 168.177 15.9396C168.414 16.3836 168.555 16.8275 168.599 17.2715C168.644 17.7155 168.666 18.2112 168.666 18.7588V26.0842H166.024V23.6202L166.402 24.1308C165.817 24.9373 165.184 25.5219 164.504 25.8844C163.83 26.2396 162.976 26.4172 161.94 26.4172ZM162.584 24.042C163.138 24.042 163.605 23.9458 163.982 23.7534C164.367 23.5536 164.67 23.3279 164.892 23.0764C165.122 22.8248 165.277 22.6139 165.358 22.4437C165.514 22.1181 165.602 21.7408 165.625 21.3116C165.654 20.875 165.669 20.5125 165.669 20.2239L166.557 20.4459C165.662 20.5938 164.937 20.7196 164.382 20.8232C163.827 20.9194 163.379 21.0082 163.039 21.0896C162.698 21.171 162.399 21.2598 162.14 21.356C161.844 21.4744 161.603 21.6039 161.418 21.7445C161.241 21.8777 161.107 22.0256 161.019 22.1884C160.937 22.3512 160.896 22.5325 160.896 22.7323C160.896 23.0061 160.963 23.2428 161.096 23.4426C161.237 23.635 161.433 23.783 161.684 23.8866C161.936 23.9902 162.236 24.042 162.584 24.042ZM179.721 26.0842V20.4237C179.721 20.1499 179.706 19.8021 179.676 19.3803C179.647 18.9512 179.554 18.522 179.399 18.0928C179.244 17.6637 178.988 17.3048 178.633 17.0162C178.285 16.7276 177.79 16.5834 177.146 16.5834C176.887 16.5834 176.609 16.6241 176.313 16.7054C176.017 16.7868 175.74 16.9459 175.481 17.1827C175.222 17.4121 175.007 17.7525 174.837 18.2038C174.674 18.6552 174.593 19.2546 174.593 20.0019L172.861 19.1806C172.861 18.2334 173.054 17.3455 173.439 16.5168C173.823 15.688 174.401 15.0184 175.17 14.5078C175.947 13.9973 176.924 13.742 178.1 13.742C179.04 13.742 179.806 13.9011 180.398 14.2192C180.99 14.5374 181.449 14.9407 181.774 15.429C182.107 15.9174 182.344 16.428 182.484 16.9607C182.625 17.4861 182.71 17.967 182.74 18.4036C182.769 18.8402 182.784 19.1584 182.784 19.3581V26.0842H179.721ZM171.53 26.0842V14.0971H174.216V18.0706H174.593V26.0842H171.53ZM190.792 31.7448C190.111 31.7448 189.464 31.6338 188.85 31.4118C188.235 31.1972 187.684 30.8939 187.196 30.5017C186.715 30.1169 186.323 29.6656 186.019 29.1476L188.816 27.7935C189.009 28.1487 189.283 28.4187 189.638 28.6037C190 28.7887 190.392 28.8812 190.814 28.8812C191.266 28.8812 191.691 28.8035 192.091 28.6481C192.49 28.5001 192.808 28.2745 193.045 27.9711C193.289 27.6751 193.404 27.3051 193.389 26.8612V23.376H193.767V14.0971H196.408V26.9056C196.408 27.2015 196.393 27.479 196.364 27.738C196.342 28.0044 196.297 28.2671 196.231 28.526C196.038 29.2586 195.679 29.8616 195.154 30.3352C194.636 30.8088 194 31.1602 193.245 31.3896C192.49 31.6264 191.673 31.7448 190.792 31.7448ZM190.526 26.4172C189.423 26.4172 188.457 26.1397 187.629 25.5848C186.8 25.0298 186.153 24.2751 185.686 23.3205C185.228 22.366 184.998 21.2894 184.998 20.0907C184.998 18.8698 185.231 17.7858 185.697 16.8386C186.171 15.8841 186.833 15.1331 187.684 14.5855C188.535 14.038 189.534 13.7642 190.681 13.7642C191.821 13.7642 192.779 14.0417 193.556 14.5966C194.333 15.1516 194.921 15.9063 195.32 16.8608C195.72 17.8154 195.92 18.892 195.92 20.0907C195.92 21.2894 195.716 22.366 195.309 23.3205C194.91 24.2751 194.31 25.0298 193.511 25.5848C192.712 26.1397 191.717 26.4172 190.526 26.4172ZM191.014 23.7312C191.687 23.7312 192.224 23.5795 192.623 23.2761C193.03 22.9728 193.323 22.5473 193.5 21.9997C193.678 21.4522 193.767 20.8158 193.767 20.0907C193.767 19.3655 193.678 18.7292 193.5 18.1816C193.323 17.6341 193.038 17.2086 192.646 16.9052C192.261 16.6019 191.754 16.4502 191.125 16.4502C190.452 16.4502 189.897 16.6167 189.46 16.9496C189.031 17.2752 188.713 17.7155 188.506 18.2704C188.298 18.818 188.195 19.4247 188.195 20.0907C188.195 20.764 188.295 21.3782 188.494 21.9331C188.694 22.4807 189.001 22.9173 189.416 23.2428C189.83 23.5684 190.363 23.7312 191.014 23.7312ZM205.088 26.4172C203.86 26.4172 202.776 26.1545 201.836 25.6292C200.904 25.0964 200.171 24.3676 199.639 23.4426C199.113 22.5103 198.851 21.4448 198.851 20.2461C198.851 18.9364 199.109 17.7969 199.627 16.8275C200.145 15.8582 200.859 15.1072 201.77 14.5744C202.68 14.0343 203.727 13.7642 204.911 13.7642C206.169 13.7642 207.238 14.0601 208.118 14.6521C208.999 15.2441 209.65 16.0765 210.072 17.1494C210.494 18.2223 210.641 19.4839 210.516 20.9342H207.53V19.8243C207.53 18.6034 207.334 17.7266 206.942 17.1938C206.557 16.6537 205.924 16.3836 205.044 16.3836C204.015 16.3836 203.257 16.698 202.769 17.327C202.288 17.9486 202.047 18.8698 202.047 20.0907C202.047 21.208 202.288 22.0737 202.769 22.6879C203.257 23.2946 203.971 23.598 204.911 23.598C205.503 23.598 206.009 23.4685 206.431 23.2095C206.853 22.9506 207.175 22.5769 207.397 22.0885L210.416 22.9543C209.964 24.0494 209.25 24.9003 208.274 25.5071C207.304 26.1138 206.243 26.4172 205.088 26.4172ZM201.115 20.9342V18.6922H209.062V20.9342H201.115Z" fill="#313131"/>
<path d="M209.221 10.918V10.3938H212.345V10.918H211.086V14.4298H210.479V10.918H209.221ZM213.257 10.3938H213.996L215.281 13.5312H215.328L216.613 10.3938H217.352V14.4298H216.773V11.5092H216.736L215.545 14.4239H215.064L213.874 11.5072H213.837V14.4298H213.257V10.3938Z" fill="#474747"/>
<defs>
<linearGradient id="paint0_linear_347_1601" x1="126.222" y1="3.89453" x2="126.222" y2="32.6675" gradientUnits="userSpaceOnUse">
<stop stop-color="#F8C006"/>
<stop offset="0.4375" stop-color="#F8A82D"/>
<stop offset="1" stop-color="#F1C907"/>
</linearGradient>
<linearGradient id="paint1_linear_347_1601" x1="101.188" y1="1.34914" x2="126.444" y2="31.077" gradientUnits="userSpaceOnUse">
<stop stop-color="#2E2E2E"/>
<stop offset="0.453168" stop-color="#343434"/>
<stop offset="1" stop-color="#737373"/>
</linearGradient>
</defs>
</svg>
