<svg width="18" height="18" viewBox="0 0 18 18" fill="none" xmlns="http://www.w3.org/2000/svg">
<path d="M10.5 9.75H12C12.3978 9.75 12.7794 9.90804 13.0607 10.1893C13.342 10.4706 13.5 10.8522 13.5 11.25V12.75C13.5 13.1478 13.658 13.5294 13.9393 13.8107C14.2206 14.092 14.6022 14.25 15 14.25C15.3978 14.25 15.7794 14.092 16.0607 13.8107C16.342 13.5294 16.5 13.1478 16.5 12.75V7.5015C16.5002 7.30357 16.4611 7.10756 16.3852 6.92477C16.3092 6.74199 16.1979 6.57604 16.0575 6.4365L13.5 3.75M10.5 15.75V3.75C10.5 3.35218 10.342 2.97064 10.0607 2.68934C9.77936 2.40804 9.39782 2.25 9 2.25H3.75C3.35218 2.25 2.97064 2.40804 2.68934 2.68934C2.40804 2.97064 2.25 3.35218 2.25 3.75V15.75M1.5 15.75H11.25M2.25 6.75H10.5" stroke="#636363" stroke-linecap="round" stroke-linejoin="round"/>
</svg>
