<svg width="14" height="14" viewBox="0 0 14 14" fill="none" xmlns="http://www.w3.org/2000/svg">
<g clip-path="url(#clip0_377_2923)">
<path d="M2.33317 3.50001C2.9775 3.50001 3.49984 2.97767 3.49984 2.33334C3.49984 1.68901 2.9775 1.16667 2.33317 1.16667C1.68884 1.16667 1.1665 1.68901 1.1665 2.33334C1.1665 2.97767 1.68884 3.50001 2.33317 3.50001ZM2.33317 3.50001V4.66667M2.33317 10.5C1.68884 10.5 1.1665 11.0223 1.1665 11.6667C1.1665 12.311 1.68884 12.8333 2.33317 12.8333C2.9775 12.8333 3.49984 12.311 3.49984 11.6667C3.49984 11.0223 2.9775 10.5 2.33317 10.5ZM2.33317 10.5V6.41667M6.99984 10.5C6.35549 10.5 5.83317 11.0223 5.83317 11.6667C5.83317 12.311 6.35549 12.8333 6.99984 12.8333C7.64419 12.8333 8.1665 12.311 8.1665 11.6667C8.1665 11.0223 7.64419 10.5 6.99984 10.5ZM6.99984 10.5V9.33334M6.99984 3.50001C7.64419 3.50001 8.1665 2.97767 8.1665 2.33334C8.1665 1.68901 7.64419 1.16667 6.99984 1.16667C6.35549 1.16667 5.83317 1.68901 5.83317 2.33334C5.83317 2.97767 6.35549 3.50001 6.99984 3.50001ZM6.99984 3.50001V7.58334M11.6665 3.50001C12.3109 3.50001 12.8332 2.97767 12.8332 2.33334C12.8332 1.68901 12.3109 1.16667 11.6665 1.16667C11.0222 1.16667 10.4998 1.68901 10.4998 2.33334C10.4998 2.97767 11.0222 3.50001 11.6665 3.50001ZM11.6665 3.50001V4.66667C11.6665 5.76662 11.6665 6.31657 11.3248 6.65829C10.9831 7.00001 10.4331 7 9.33317 7H5.83317M2.33317 7H3.49984" stroke="#636363" stroke-linecap="round"/>
<path d="M10.5 8.75V8.3125C10.2584 8.3125 10.0625 8.50838 10.0625 8.75H10.5ZM10.0625 12.8333C10.0625 13.075 10.2584 13.2708 10.5 13.2708C10.7416 13.2708 10.9375 13.075 10.9375 12.8333H10.0625ZM12.4602 13.0618C12.5863 13.2679 12.8557 13.3326 13.0618 13.2064C13.2679 13.0803 13.3326 12.8109 13.2064 12.6049L12.4602 13.0618ZM10.5 9.1875H11.8333V8.3125H10.5V9.1875ZM10.9375 10.7917V8.75H10.0625V10.7917H10.9375ZM12.3958 9.77083C12.3958 10.1015 12.1355 10.3542 11.8333 10.3542V11.2292C12.6357 11.2292 13.2708 10.5677 13.2708 9.77083H12.3958ZM11.8333 9.1875C12.1355 9.1875 12.3958 9.44014 12.3958 9.77083H13.2708C13.2708 8.97394 12.6357 8.3125 11.8333 8.3125V9.1875ZM11.8333 10.3542H11.5833V11.2292H11.8333V10.3542ZM11.5833 10.3542H10.5V11.2292H11.5833V10.3542ZM11.2102 11.0201L12.4602 13.0618L13.2064 12.6049L11.9565 10.5632L11.2102 11.0201ZM10.0625 10.7917V12.8333H10.9375V10.7917H10.0625Z" fill="#636363"/>
</g>
<defs>
<clipPath id="clip0_377_2923">
<rect width="14" height="14" fill="white"/>
</clipPath>
</defs>
</svg>
