<svg width="116" height="20" viewBox="0 0 116 20" fill="none" xmlns="http://www.w3.org/2000/svg">
<path d="M5.61819 16.225C4.53806 16.225 3.61294 15.99 2.84285 15.5199C2.07275 15.0449 1.48018 14.3848 1.06513 13.5397C0.65508 12.6946 0.450055 11.7145 0.450055 10.5993C0.450055 9.4842 0.65508 8.50408 1.06513 7.65898C1.48018 6.81388 2.07275 6.1563 2.84285 5.68624C3.61294 5.21118 4.53806 4.97365 5.61819 4.97365C6.86334 4.97365 7.90097 5.28619 8.73107 5.91127C9.56117 6.53134 10.1437 7.36894 10.4788 8.42407L8.65606 8.92663C8.44603 8.22155 8.08849 7.67148 7.58343 7.27643C7.07837 6.87638 6.42329 6.67636 5.61819 6.67636C4.8931 6.67636 4.28802 6.83888 3.80297 7.16392C3.32291 7.48896 2.96036 7.94651 2.71533 8.53659C2.4753 9.12166 2.35279 9.80924 2.34779 10.5993C2.34779 11.3894 2.4678 12.0795 2.70783 12.6696C2.95286 13.2547 3.31791 13.7097 3.80297 14.0348C4.28802 14.3598 4.8931 14.5223 5.61819 14.5223C6.42329 14.5223 7.07837 14.3223 7.58343 13.9222C8.08849 13.5222 8.44603 12.9721 8.65606 12.272L10.4788 12.7746C10.1437 13.8297 9.56117 14.6698 8.73107 15.2949C7.90097 15.915 6.86334 16.225 5.61819 16.225ZM16.5778 16.225C15.7878 16.225 15.0752 16.0875 14.4401 15.8125C13.81 15.5374 13.2899 15.1449 12.8799 14.6348C12.4748 14.1198 12.2173 13.5097 12.1073 12.8046L13.9825 12.5196C14.1426 13.1597 14.4701 13.6547 14.9652 14.0048C15.4652 14.3548 16.0403 14.5298 16.6904 14.5298C17.0754 14.5298 17.438 14.4698 17.778 14.3498C18.118 14.2298 18.3931 14.0548 18.6031 13.8247C18.8181 13.5947 18.9256 13.3122 18.9256 12.9771C18.9256 12.8271 18.9006 12.6896 18.8506 12.5646C18.8006 12.4346 18.7256 12.3195 18.6256 12.2195C18.5306 12.1195 18.4056 12.0295 18.2506 11.9495C18.1005 11.8645 17.9255 11.792 17.7255 11.732L14.9351 10.9069C14.6951 10.8369 14.4351 10.7444 14.1551 10.6293C13.88 10.5093 13.6175 10.3468 13.3675 10.1418C13.1224 9.93176 12.9199 9.66673 12.7599 9.34669C12.6049 9.02165 12.5274 8.6216 12.5274 8.14654C12.5274 7.45145 12.7024 6.86888 13.0524 6.39883C13.4075 5.92377 13.8825 5.56872 14.4776 5.3337C15.0777 5.09867 15.7427 4.98365 16.4728 4.98865C17.2129 4.99365 17.873 5.12117 18.4531 5.3712C19.0331 5.61623 19.5182 5.97377 19.9083 6.44383C20.2983 6.91389 20.5733 7.48146 20.7334 8.14654L18.7906 8.48408C18.7106 8.10403 18.5556 7.78149 18.3256 7.51646C18.1005 7.24643 17.823 7.0414 17.493 6.90139C17.1679 6.76137 16.8204 6.68636 16.4503 6.67636C16.0903 6.67136 15.7552 6.72637 15.4452 6.84138C15.1402 6.95139 14.8926 7.11141 14.7026 7.32144C14.5176 7.53146 14.4251 7.77649 14.4251 8.05653C14.4251 8.32156 14.5051 8.53909 14.6651 8.70911C14.8251 8.87413 15.0227 9.00664 15.2577 9.10666C15.4977 9.20167 15.7402 9.28168 15.9853 9.34669L17.9205 9.88675C18.1855 9.95676 18.4831 10.0518 18.8131 10.1718C19.1432 10.2918 19.4607 10.4593 19.7657 10.6743C20.0708 10.8894 20.3208 11.1719 20.5158 11.522C20.7159 11.872 20.8159 12.317 20.8159 12.8571C20.8159 13.4172 20.6984 13.9097 20.4633 14.3348C20.2333 14.7548 19.9208 15.1049 19.5257 15.3849C19.1307 15.665 18.6781 15.875 18.168 16.015C17.663 16.155 17.1329 16.225 16.5778 16.225Z" fill="url(#paint0_linear_686_5876)"/>
<path d="M24.4658 0.413574L27.9951 6.06689L30.6084 2.22314L34.2246 2.21826L29.7607 8.89404L36.4375 19.5874L32.4463 19.5757L27.6289 12.0815L24.4902 16.7769L20.707 16.7896L25.8193 9.26709L20.1279 0.412598L24.4658 0.413574Z" fill="url(#paint1_linear_686_5876)"/>
<path d="M38.0577 2.29028H35.7392L31.2217 8.89578L35.6787 15.6509H38.045L33.7792 8.87188L38.0577 2.29028Z" fill="url(#paint2_linear_686_5876)"/>
<path d="M45.4455 16L48.851 5.19868H51.4988L54.9042 16H53.044L49.9536 6.30881H50.3586L47.3058 16H45.4455ZM47.3433 13.6597V11.972H53.014V13.6597H47.3433ZM59.9653 16.225C59.1752 16.225 58.4626 16.0875 57.8276 15.8125C57.1975 15.5374 56.6774 15.1449 56.2674 14.6348C55.8623 14.1198 55.6048 13.5097 55.4948 12.8046L57.37 12.5196C57.53 13.1597 57.8576 13.6547 58.3526 14.0048C58.8527 14.3548 59.4278 14.5298 60.0778 14.5298C60.4629 14.5298 60.8254 14.4698 61.1655 14.3498C61.5055 14.2298 61.7806 14.0548 61.9906 13.8247C62.2056 13.5947 62.3131 13.3122 62.3131 12.9771C62.3131 12.8271 62.2881 12.6896 62.2381 12.5646C62.1881 12.4346 62.1131 12.3195 62.0131 12.2195C61.9181 12.1195 61.7931 12.0295 61.638 11.9495C61.488 11.8645 61.313 11.792 61.113 11.732L58.3226 10.9069C58.0826 10.8369 57.8226 10.7444 57.5425 10.6293C57.2675 10.5093 57.005 10.3468 56.7549 10.1418C56.5099 9.93176 56.3074 9.66673 56.1474 9.34669C55.9923 9.02165 55.9148 8.6216 55.9148 8.14654C55.9148 7.45145 56.0899 6.86888 56.4399 6.39883C56.7949 5.92377 57.27 5.56872 57.8651 5.3337C58.4651 5.09867 59.1302 4.98365 59.8603 4.98865C60.6004 4.99365 61.2605 5.12117 61.8406 5.3712C62.4206 5.61623 62.9057 5.97377 63.2957 6.44383C63.6858 6.91389 63.9608 7.48146 64.1208 8.14654L62.1781 8.48408C62.0981 8.10403 61.9431 7.78149 61.713 7.51646C61.488 7.24643 61.2105 7.0414 60.8804 6.90139C60.5554 6.76137 60.2079 6.68636 59.8378 6.67636C59.4778 6.67136 59.1427 6.72637 58.8327 6.84138C58.5277 6.95139 58.2801 7.11141 58.0901 7.32144C57.9051 7.53146 57.8126 7.77649 57.8126 8.05653C57.8126 8.32156 57.8926 8.53909 58.0526 8.70911C58.2126 8.87413 58.4101 9.00664 58.6452 9.10666C58.8852 9.20167 59.1277 9.28168 59.3728 9.34669L61.308 9.88675C61.573 9.95676 61.8706 10.0518 62.2006 10.1718C62.5306 10.2918 62.8482 10.4593 63.1532 10.6743C63.4583 10.8894 63.7083 11.1719 63.9033 11.522C64.1033 11.872 64.2033 12.317 64.2033 12.8571C64.2033 13.4172 64.0858 13.9097 63.8508 14.3348C63.6208 14.7548 63.3082 15.1049 62.9132 15.3849C62.5181 15.665 62.0656 15.875 61.5555 16.015C61.0505 16.155 60.5204 16.225 59.9653 16.225ZM70.0447 16.225C69.2546 16.225 68.542 16.0875 67.9069 15.8125C67.2768 15.5374 66.7568 15.1449 66.3467 14.6348C65.9417 14.1198 65.6842 13.5097 65.5741 12.8046L67.4494 12.5196C67.6094 13.1597 67.9369 13.6547 68.432 14.0048C68.9321 14.3548 69.5071 14.5298 70.1572 14.5298C70.5422 14.5298 70.9048 14.4698 71.2448 14.3498C71.5849 14.2298 71.8599 14.0548 72.0699 13.8247C72.285 13.5947 72.3925 13.3122 72.3925 12.9771C72.3925 12.8271 72.3675 12.6896 72.3175 12.5646C72.2675 12.4346 72.1924 12.3195 72.0924 12.2195C71.9974 12.1195 71.8724 12.0295 71.7174 11.9495C71.5674 11.8645 71.3924 11.792 71.1923 11.732L68.402 10.9069C68.162 10.8369 67.9019 10.7444 67.6219 10.6293C67.3469 10.5093 67.0843 10.3468 66.8343 10.1418C66.5893 9.93176 66.3867 9.66673 66.2267 9.34669C66.0717 9.02165 65.9942 8.6216 65.9942 8.14654C65.9942 7.45145 66.1692 6.86888 66.5193 6.39883C66.8743 5.92377 67.3494 5.56872 67.9444 5.3337C68.5445 5.09867 69.2096 4.98365 69.9397 4.98865C70.6798 4.99365 71.3398 5.12117 71.9199 5.3712C72.5 5.61623 72.985 5.97377 73.3751 6.44383C73.7651 6.91389 74.0402 7.48146 74.2002 8.14654L72.2575 8.48408C72.1774 8.10403 72.0224 7.78149 71.7924 7.51646C71.5674 7.24643 71.2898 7.0414 70.9598 6.90139C70.6348 6.76137 70.2872 6.68636 69.9172 6.67636C69.5571 6.67136 69.2221 6.72637 68.912 6.84138C68.607 6.95139 68.3595 7.11141 68.1695 7.32144C67.9844 7.53146 67.8919 7.77649 67.8919 8.05653C67.8919 8.32156 67.9719 8.53909 68.132 8.70911C68.292 8.87413 68.4895 9.00664 68.7245 9.10666C68.9646 9.20167 69.2071 9.28168 69.4521 9.34669L71.3874 9.88675C71.6524 9.95676 71.9499 10.0518 72.28 10.1718C72.61 10.2918 72.9275 10.4593 73.2326 10.6743C73.5376 10.8894 73.7876 11.1719 73.9827 11.522C74.1827 11.872 74.2827 12.317 74.2827 12.8571C74.2827 13.4172 74.1652 13.9097 73.9302 14.3348C73.7001 14.7548 73.3876 15.1049 72.9925 15.3849C72.5975 15.665 72.1449 15.875 71.6349 16.015C71.1298 16.155 70.5998 16.225 70.0447 16.225ZM80.2568 16.225C79.3967 16.225 78.6391 16.05 77.9841 15.7C77.334 15.3499 76.8239 14.8574 76.4539 14.2223C76.0888 13.5872 75.9063 12.8421 75.9063 11.987V5.21368L77.7365 5.19868V11.942C77.7365 12.3471 77.804 12.7096 77.9391 13.0296C78.0791 13.3497 78.2666 13.6222 78.5016 13.8472C78.7366 14.0673 79.0067 14.2348 79.3117 14.3498C79.6168 14.4648 79.9318 14.5223 80.2568 14.5223C80.5919 14.5223 80.9094 14.4648 81.2095 14.3498C81.5145 14.2298 81.7845 14.0598 82.0196 13.8397C82.2546 13.6147 82.4396 13.3422 82.5746 13.0221C82.7096 12.7021 82.7771 12.3421 82.7771 11.942V5.19868H84.6074V11.987C84.6074 12.8421 84.4223 13.5872 84.0523 14.2223C83.6873 14.8574 83.1772 15.3499 82.5221 15.7C81.872 16.05 81.1169 16.225 80.2568 16.225ZM86.7035 16V5.19868H91.1666C91.2716 5.19868 91.4066 5.20368 91.5716 5.21368C91.7366 5.21868 91.8892 5.23368 92.0292 5.25869C92.6542 5.3537 93.1693 5.56122 93.5744 5.88126C93.9844 6.2013 94.2869 6.60635 94.482 7.09641C94.682 7.58147 94.782 8.12154 94.782 8.71661C94.782 9.59672 94.5595 10.3543 94.1144 10.9894C93.6694 11.6195 92.9868 12.0095 92.0667 12.1595L91.2941 12.227H88.5112V16H86.7035ZM92.9068 16L90.7765 11.6045L92.6142 11.1994L94.9545 16H92.9068ZM88.5112 10.5393H91.0916C91.1916 10.5393 91.3041 10.5343 91.4291 10.5243C91.5541 10.5143 91.6691 10.4943 91.7741 10.4643C92.0742 10.3893 92.3092 10.2568 92.4792 10.0668C92.6542 9.87675 92.7768 9.66172 92.8468 9.4217C92.9218 9.18167 92.9593 8.94664 92.9593 8.71661C92.9593 8.48658 92.9218 8.25155 92.8468 8.01152C92.7768 7.76649 92.6542 7.54897 92.4792 7.35894C92.3092 7.16892 92.0742 7.0364 91.7741 6.96139C91.6691 6.93139 91.5541 6.91389 91.4291 6.90889C91.3041 6.89889 91.1916 6.89389 91.0916 6.89389H88.5112V10.5393ZM96.6071 16V5.19868H103.583V6.89389H98.4148V9.55671H102.683V11.2519H98.4148V14.3048H103.583V16H96.6071ZM105.383 16V5.19868H108.825C108.915 5.19868 109.093 5.20118 109.358 5.20618C109.628 5.21118 109.888 5.22868 110.138 5.25869C110.993 5.3687 111.716 5.67374 112.306 6.1738C112.901 6.66886 113.351 7.30144 113.656 8.07153C113.961 8.84162 114.114 9.68423 114.114 10.5993C114.114 11.5145 113.961 12.3571 113.656 13.1271C113.351 13.8972 112.901 14.5323 112.306 15.0324C111.716 15.5274 110.993 15.83 110.138 15.94C109.893 15.97 109.636 15.9875 109.366 15.9925C109.096 15.9975 108.915 16 108.825 16H105.383ZM107.22 14.2973H108.825C108.976 14.2973 109.166 14.2923 109.396 14.2823C109.631 14.2723 109.838 14.2498 110.018 14.2148C110.528 14.1198 110.943 13.8922 111.263 13.5322C111.583 13.1722 111.818 12.7346 111.968 12.2195C112.123 11.7045 112.201 11.1644 112.201 10.5993C112.201 10.0143 112.123 9.4642 111.968 8.94914C111.813 8.43407 111.573 8.00152 111.248 7.65148C110.928 7.30144 110.518 7.07891 110.018 6.9839C109.838 6.94389 109.631 6.92139 109.396 6.91639C109.166 6.90639 108.976 6.90139 108.825 6.90139H107.22V14.2973Z" fill="url(#paint3_linear_686_5876)"/>
<defs>
<linearGradient id="paint0_linear_686_5876" x1="2.92344" y1="0.630998" x2="14.7686" y2="18.6621" gradientUnits="userSpaceOnUse">
<stop stop-color="#2E2E2E"/>
<stop offset="0.453168" stop-color="#343434"/>
<stop offset="1" stop-color="#737373"/>
</linearGradient>
<linearGradient id="paint1_linear_686_5876" x1="22.2952" y1="1.01756" x2="34.5064" y2="15.3909" gradientUnits="userSpaceOnUse">
<stop stop-color="#2E2E2E"/>
<stop offset="0.453168" stop-color="#343434"/>
<stop offset="1" stop-color="#737373"/>
</linearGradient>
<linearGradient id="paint2_linear_686_5876" x1="34.6397" y1="2.29028" x2="34.6397" y2="16.2014" gradientUnits="userSpaceOnUse">
<stop stop-color="#F8C006"/>
<stop offset="0.4375" stop-color="#F8A82D"/>
<stop offset="1" stop-color="#F1C907"/>
</linearGradient>
<linearGradient id="paint3_linear_686_5876" x1="54.4474" y1="0.630998" x2="59.5588" y2="25.3882" gradientUnits="userSpaceOnUse">
<stop stop-color="#2E2E2E"/>
<stop offset="0.453168" stop-color="#343434"/>
<stop offset="1" stop-color="#737373"/>
</linearGradient>
</defs>
</svg>
