<svg width="16" height="16" viewBox="0 0 16 16" fill="none" xmlns="http://www.w3.org/2000/svg">
<path d="M8.00394 0.121094C4.714 0.121094 3.75181 0.124488 3.56478 0.140003C2.88963 0.196124 2.46951 0.302427 2.01181 0.530306C1.65909 0.705457 1.38091 0.908488 1.10636 1.19309C0.60636 1.71212 0.303329 2.35067 0.193632 3.1097C0.140299 3.47818 0.124784 3.55334 0.121632 5.43552C0.12042 6.06291 0.121632 6.88861 0.121632 7.99612C0.121632 11.2834 0.125269 12.2446 0.141026 12.4313C0.195572 13.0882 0.298602 13.5016 0.516784 13.9537C0.933754 14.8192 1.73012 15.4689 2.6683 15.7113C2.99315 15.7949 3.35194 15.841 3.81254 15.8628C4.00769 15.8713 5.99678 15.8773 7.98709 15.8773C9.97739 15.8773 11.9677 15.8749 12.158 15.8652C12.6913 15.8401 13.001 15.7985 13.3435 15.7101C14.2877 15.4664 15.0695 14.8264 15.495 13.9489C15.7089 13.5076 15.8174 13.0785 15.8665 12.4559C15.8771 12.3201 15.8816 10.1556 15.8816 7.99406C15.8816 5.83212 15.8768 3.67164 15.8661 3.53588C15.8164 2.90315 15.7079 2.4777 15.4871 2.028C15.3059 1.65988 15.1047 1.38497 14.8125 1.10388C14.2912 0.605942 13.6536 0.302912 12.8939 0.193336C12.5258 0.140124 12.4524 0.124366 10.5688 0.121094H8.00394Z" fill="url(#paint0_radial_164_5310)"/>
<path d="M8.00394 0.121094C4.714 0.121094 3.75181 0.124488 3.56478 0.140003C2.88963 0.196124 2.46951 0.302427 2.01181 0.530306C1.65909 0.705457 1.38091 0.908488 1.10636 1.19309C0.60636 1.71212 0.303329 2.35067 0.193632 3.1097C0.140299 3.47818 0.124784 3.55334 0.121632 5.43552C0.12042 6.06291 0.121632 6.88861 0.121632 7.99612C0.121632 11.2834 0.125269 12.2446 0.141026 12.4313C0.195572 13.0882 0.298602 13.5016 0.516784 13.9537C0.933754 14.8192 1.73012 15.4689 2.6683 15.7113C2.99315 15.7949 3.35194 15.841 3.81254 15.8628C4.00769 15.8713 5.99678 15.8773 7.98709 15.8773C9.97739 15.8773 11.9677 15.8749 12.158 15.8652C12.6913 15.8401 13.001 15.7985 13.3435 15.7101C14.2877 15.4664 15.0695 14.8264 15.495 13.9489C15.7089 13.5076 15.8174 13.0785 15.8665 12.4559C15.8771 12.3201 15.8816 10.1556 15.8816 7.99406C15.8816 5.83212 15.8768 3.67164 15.8661 3.53588C15.8164 2.90315 15.7079 2.4777 15.4871 2.028C15.3059 1.65988 15.1047 1.38497 14.8125 1.10388C14.2912 0.605942 13.6536 0.302912 12.8939 0.193336C12.5258 0.140124 12.4524 0.124366 10.5688 0.121094H8.00394Z" fill="url(#paint1_radial_164_5310)"/>
<path d="M8.00031 2.18188C6.42019 2.18188 6.22188 2.18879 5.60128 2.21704C4.98188 2.2454 4.5591 2.34346 4.18916 2.48734C3.80649 2.63595 3.48188 2.83473 3.15849 3.15825C2.83485 3.48164 2.63606 3.80625 2.48697 4.18879C2.34273 4.55885 2.24455 4.98176 2.21667 5.60092C2.18891 6.22152 2.18164 6.41995 2.18164 8.00007C2.18164 9.58019 2.18867 9.77789 2.21679 10.3985C2.24528 11.0179 2.34334 11.4407 2.4871 11.8106C2.63582 12.1933 2.83461 12.5179 3.15813 12.8413C3.4814 13.1649 3.806 13.3642 4.18843 13.5128C4.55861 13.6567 4.98152 13.7547 5.60079 13.7831C6.2214 13.8113 6.41958 13.8182 7.99958 13.8182C9.57982 13.8182 9.77752 13.8113 10.3981 13.7831C11.0175 13.7547 11.4408 13.6567 11.811 13.5128C12.1935 13.3642 12.5176 13.1649 12.8409 12.8413C13.1646 12.5179 13.3633 12.1933 13.5124 11.8107C13.6555 11.4407 13.7536 11.0178 13.7827 10.3986C13.8106 9.77801 13.8179 9.58019 13.8179 8.00007C13.8179 6.41995 13.8106 6.22164 13.7827 5.60104C13.7536 4.98164 13.6555 4.55885 13.5124 4.18892C13.3633 3.80625 13.1646 3.48164 12.8409 3.15825C12.5173 2.83461 12.1936 2.63582 11.8106 2.48734C11.4397 2.34346 11.0167 2.2454 10.3973 2.21704C9.77667 2.18879 9.5791 2.18188 7.99849 2.18188H8.00031ZM7.47837 3.23037C7.63328 3.23013 7.80613 3.23037 8.00031 3.23037C9.55376 3.23037 9.73788 3.23595 10.3513 3.26382C10.9186 3.28976 11.2265 3.38455 11.4316 3.46419C11.7031 3.56964 11.8967 3.6957 12.1002 3.89934C12.3038 4.10298 12.4299 4.29692 12.5356 4.56843C12.6152 4.77328 12.7101 5.08116 12.7359 5.64843C12.7638 6.26176 12.7699 6.44601 12.7699 7.99873C12.7699 9.55146 12.7638 9.7357 12.7359 10.349C12.71 10.9163 12.6152 11.2242 12.5356 11.429C12.4301 11.7006 12.3038 11.8939 12.1002 12.0974C11.8966 12.301 11.7032 12.4271 11.4316 12.5326C11.2267 12.6126 10.9186 12.7071 10.3513 12.733C9.738 12.7609 9.55376 12.767 8.00031 12.767C6.44673 12.767 6.26261 12.7609 5.64928 12.733C5.082 12.7069 4.77413 12.6121 4.56891 12.5324C4.2974 12.427 4.10346 12.3009 3.89982 12.0973C3.69619 11.8936 3.57013 11.7002 3.46443 11.4286C3.38479 11.2237 3.28988 10.9158 3.26406 10.3486C3.23619 9.73522 3.23061 9.55098 3.23061 7.99728C3.23061 6.44358 3.23619 6.26031 3.26406 5.64698C3.29 5.0797 3.38479 4.77182 3.46443 4.56673C3.56988 4.29522 3.69619 4.10128 3.89982 3.89764C4.10346 3.69401 4.2974 3.56795 4.56891 3.46225C4.774 3.38225 5.082 3.2877 5.64928 3.26164C6.186 3.2374 6.394 3.23013 7.47837 3.22892V3.23037ZM11.106 4.19643C10.7205 4.19643 10.4078 4.50879 10.4078 4.89437C10.4078 5.27982 10.7205 5.59255 11.106 5.59255C11.4915 5.59255 11.8042 5.27982 11.8042 4.89437C11.8042 4.50891 11.4915 4.19619 11.106 4.19619V4.19643ZM8.00031 5.01219C6.35025 5.01219 5.01243 6.35001 5.01243 8.00007C5.01243 9.65013 6.35025 10.9873 8.00031 10.9873C9.65037 10.9873 10.9877 9.65013 10.9877 8.00007C10.9877 6.35001 9.65037 5.01219 8.00031 5.01219ZM8.00031 6.06067C9.07134 6.06067 9.9397 6.92892 9.9397 8.00007C9.9397 9.0711 9.07134 9.93946 8.00031 9.93946C6.92916 9.93946 6.06091 9.0711 6.06091 8.00007C6.06091 6.92892 6.92916 6.06067 8.00031 6.06067Z" fill="white"/>
<defs>
<radialGradient id="paint0_radial_164_5310" cx="0" cy="0" r="1" gradientUnits="userSpaceOnUse" gradientTransform="translate(4.30751 17.0909) rotate(-90) scale(15.6156 14.5277)">
<stop stop-color="#FFDD55"/>
<stop offset="0.1" stop-color="#FFDD55"/>
<stop offset="0.5" stop-color="#FF543E"/>
<stop offset="1" stop-color="#C837AB"/>
</radialGradient>
<radialGradient id="paint1_radial_164_5310" cx="0" cy="0" r="1" gradientTransform="matrix(1.37044 6.84446 -28.2202 5.65051 -2.51888 1.25615)" gradientUnits="userSpaceOnUse">
<stop stop-color="#3771C8"/>
<stop offset="0.128" stop-color="#3771C8"/>
<stop offset="1" stop-color="#6600FF" stop-opacity="0"/>
</radialGradient>
</defs>
</svg>
