<svg width="305" height="58" viewBox="0 0 305 58" fill="none" xmlns="http://www.w3.org/2000/svg">
<path d="M186.713 5.45557H179.995L166.907 24.5936L179.82 44.1651H186.676L174.317 24.5244L186.713 5.45557Z" fill="url(#paint0_linear_164_5384)"/>
<path d="M148.032 0.141113L158.257 16.5181L165.827 5.38232L176.306 5.36963L163.372 24.7104L182.715 55.6919L171.153 55.6587L157.196 33.9468L148.102 47.5483L137.141 47.5854L151.954 25.7915L135.463 0.137207L148.032 0.141113Z" fill="white"/>
<path d="M13.7284 36.3861C11.4895 36.3861 9.55646 35.8989 7.92915 34.9246C6.31221 33.9503 5.06323 32.5873 4.1822 30.8356C3.31154 29.084 2.87621 27.0472 2.87621 24.7255C2.87621 22.4037 3.31154 20.367 4.1822 18.6153C5.06323 16.8636 6.31221 15.5006 7.92915 14.5263C9.55646 13.552 11.4895 13.0648 13.7284 13.0648C16.2989 13.0648 18.4548 13.7023 20.1961 14.9772C21.9478 16.2521 23.1813 17.9778 23.8964 20.1545L19.6364 21.3361C19.2218 19.9783 18.5222 18.9262 17.5375 18.18C16.5528 17.4233 15.2831 17.045 13.7284 17.045C12.3084 17.045 11.1216 17.3611 10.168 17.9934C9.22478 18.6257 8.51477 19.5171 8.03798 20.6676C7.56119 21.8181 7.3228 23.1707 7.3228 24.7255C7.3228 26.2802 7.56119 27.6329 8.03798 28.7834C8.51477 29.9339 9.22478 30.8253 10.168 31.4575C11.1216 32.0898 12.3084 32.4059 13.7284 32.4059C15.2831 32.4059 16.5528 32.0276 17.5375 31.271C18.5222 30.5143 19.2218 29.4623 19.6364 28.1148L23.8964 29.2964C23.1813 31.4731 21.9478 33.1989 20.1961 34.4738C18.4548 35.7487 16.2989 36.3861 13.7284 36.3861ZM31.9841 36.3861C30.7817 36.3861 29.7608 36.1581 28.9212 35.702C28.092 35.2356 27.4597 34.6189 27.0244 33.8519C26.5994 33.0745 26.387 32.2194 26.387 31.2865C26.387 30.5091 26.5062 29.7991 26.7446 29.1565C26.983 28.5139 27.3665 27.949 27.8951 27.4618C28.4341 26.9643 29.1544 26.5497 30.0562 26.218C30.6781 25.99 31.4192 25.7879 32.2795 25.6117C33.1398 25.4355 34.1141 25.2696 35.2024 25.1142C36.2907 24.9483 37.4879 24.7669 38.7939 24.57L37.2702 25.4096C37.2702 24.4145 37.0318 23.6838 36.555 23.2174C36.0782 22.7509 35.2801 22.5177 34.1607 22.5177C33.5388 22.5177 32.891 22.668 32.2173 22.9686C31.5436 23.2692 31.0719 23.803 30.8025 24.57L26.9778 23.3573C27.4027 21.9684 28.2008 20.8386 29.3721 19.9679C30.5433 19.0973 32.1395 18.6619 34.1607 18.6619C35.6429 18.6619 36.9593 18.89 38.1098 19.346C39.2603 19.8021 40.131 20.5898 40.7218 21.7093C41.0534 22.3312 41.2504 22.9531 41.3126 23.575C41.3748 24.1969 41.4059 24.8913 41.4059 25.6583V35.9197H37.7056V32.4681L38.2342 33.1833C37.4153 34.3131 36.5291 35.1319 35.5755 35.6398C34.6323 36.1373 33.4352 36.3861 31.9841 36.3861ZM32.8858 33.0589C33.6632 33.0589 34.3162 32.9242 34.8448 32.6547C35.3838 32.3748 35.8088 32.0587 36.1197 31.7063C36.441 31.3539 36.6587 31.0585 36.7727 30.8201C36.9904 30.364 37.1147 29.8354 37.1458 29.2342C37.1873 28.6227 37.208 28.1148 37.208 27.7106L38.4518 28.0215C37.1977 28.2288 36.1819 28.405 35.4045 28.5502C34.6271 28.6849 34.0001 28.8093 33.5233 28.9233C33.0465 29.0373 32.6267 29.1617 32.2639 29.2964C31.8493 29.4623 31.5125 29.6437 31.2533 29.8406C31.0046 30.0272 30.818 30.2345 30.6936 30.4625C30.5796 30.6905 30.5226 30.9445 30.5226 31.2243C30.5226 31.6078 30.6159 31.9395 30.8025 32.2194C30.9994 32.4889 31.2741 32.6962 31.6265 32.8413C31.9789 32.9864 32.3987 33.0589 32.8858 33.0589ZM45.4485 35.9197V19.1284H49.1799V23.2329L48.7756 22.7043C48.9933 22.1239 49.2835 21.5952 49.6463 21.1184C50.0091 20.6417 50.4548 20.2478 50.9834 19.9368C51.3876 19.6881 51.8281 19.4963 52.3049 19.3616C52.7817 19.2165 53.274 19.1284 53.7819 19.0973C54.2898 19.0558 54.7977 19.0662 55.3056 19.1284V23.0774C54.8392 22.9323 54.295 22.8857 53.6731 22.9375C53.0616 22.979 52.507 23.1189 52.0095 23.3573C51.512 23.5853 51.0922 23.8911 50.7502 24.2746C50.4081 24.6477 50.149 25.0934 49.9728 25.6117C49.7966 26.1196 49.7085 26.6948 49.7085 27.3375V35.9197H45.4485ZM64.2167 36.3861C62.1023 36.3861 60.392 35.9093 59.086 34.9557C57.7904 33.9918 57.0027 32.634 56.7228 30.8823L61.045 30.2293C61.2212 31.017 61.6099 31.6337 62.2111 32.0794C62.8226 32.5251 63.5948 32.748 64.5277 32.748C65.2947 32.748 65.8855 32.6029 66.3001 32.3127C66.7147 32.0121 66.922 31.5975 66.922 31.0689C66.922 30.7372 66.8391 30.4729 66.6732 30.2759C66.5074 30.0686 66.1343 29.8665 65.5538 29.6696C64.9837 29.4726 64.0923 29.2135 62.8796 28.8922C61.5115 28.5398 60.418 28.1459 59.5991 27.7106C58.7803 27.2753 58.1895 26.757 57.8267 26.1558C57.4639 25.5443 57.2825 24.8084 57.2825 23.9481C57.2825 22.8701 57.5572 21.9373 58.1066 21.1495C58.6559 20.3514 59.4281 19.7399 60.4231 19.3149C61.4285 18.8796 62.6102 18.6619 63.968 18.6619C65.2843 18.6619 66.4504 18.8641 67.4662 19.2683C68.4819 19.6725 69.3008 20.2478 69.9227 20.9941C70.5549 21.7403 70.9436 22.6214 71.0887 23.6371L66.7665 24.4145C66.694 23.7926 66.4245 23.3003 65.9581 22.9375C65.4916 22.5747 64.8594 22.3622 64.0613 22.3001C63.2839 22.2482 62.6568 22.3519 62.18 22.611C61.7136 22.8701 61.4804 23.2433 61.4804 23.7304C61.4804 24.0206 61.5788 24.2642 61.7758 24.4612C61.9831 24.6581 62.4029 24.8602 63.0351 25.0675C63.6777 25.2748 64.6521 25.5443 65.9581 25.876C67.2329 26.2077 68.2539 26.5964 69.0209 27.042C69.7983 27.4774 70.3632 28.006 70.7156 28.6279C71.068 29.2394 71.2442 29.9805 71.2442 30.8512C71.2442 32.5718 70.6223 33.9244 69.3785 34.9091C68.1347 35.8938 66.4141 36.3861 64.2167 36.3861ZM84.7356 35.9197C83.5747 36.1373 82.4345 36.2306 81.3151 36.1995C80.206 36.1788 79.211 35.9871 78.33 35.6243C77.4593 35.2511 76.796 34.6551 76.3399 33.8363C75.9253 33.0693 75.7076 32.2919 75.6869 31.5042C75.6662 30.7061 75.6558 29.8043 75.6558 28.7989V14.4641H79.8847V28.5502C79.8847 29.2032 79.8899 29.794 79.9003 30.3226C79.921 30.8408 80.0298 31.2554 80.2268 31.5664C80.5999 32.1572 81.1959 32.4785 82.0147 32.5303C82.8336 32.5821 83.7405 32.5407 84.7356 32.4059V35.9197ZM72.7951 22.3933V19.1284H84.7356V22.3933H72.7951ZM95.1225 36.3861C93.433 36.3861 91.9508 36.0078 90.6759 35.2511C89.401 34.4945 88.406 33.4528 87.6908 32.1261C86.986 30.789 86.6336 29.255 86.6336 27.524C86.6336 25.7723 86.9963 24.2331 87.7219 22.9064C88.4474 21.5693 89.4477 20.5276 90.7226 19.7814C91.9975 19.0351 93.4641 18.6619 95.1225 18.6619C96.812 18.6619 98.2942 19.0403 99.5691 19.7969C100.854 20.5536 101.855 21.6004 102.57 22.9375C103.285 24.2642 103.643 25.7931 103.643 27.524C103.643 29.2653 103.28 30.8045 102.554 32.1416C101.839 33.4684 100.839 34.51 99.5536 35.2667C98.2787 36.013 96.8016 36.3861 95.1225 36.3861ZM95.1225 32.437C96.4803 32.437 97.4909 31.981 98.1543 31.0689C98.828 30.1464 99.1649 28.9648 99.1649 27.524C99.1649 26.0315 98.8228 24.8395 98.1387 23.9481C97.465 23.0567 96.4596 22.611 95.1225 22.611C94.2 22.611 93.4434 22.8183 92.8526 23.2329C92.2618 23.6475 91.8213 24.2228 91.531 24.9587C91.2512 25.6946 91.1113 26.5497 91.1113 27.524C91.1113 29.0269 91.4481 30.2241 92.1218 31.1155C92.8059 31.9965 93.8062 32.437 95.1225 32.437ZM114.462 36.3861C112.721 36.3861 111.228 35.9974 109.984 35.22C108.741 34.4427 107.787 33.3854 107.124 32.0483C106.46 30.7113 106.129 29.2032 106.129 27.524C106.129 25.8242 106.471 24.3057 107.155 22.9686C107.849 21.6315 108.824 20.5795 110.078 19.8125C111.332 19.0454 112.814 18.6619 114.524 18.6619C116.504 18.6619 118.162 19.1646 119.5 20.17C120.847 21.1651 121.707 22.5281 122.08 24.259L117.852 25.3785C117.603 24.5078 117.167 23.8289 116.546 23.3417C115.934 22.8546 115.24 22.611 114.462 22.611C113.571 22.611 112.84 22.8287 112.27 23.264C111.7 23.689 111.28 24.2746 111.011 25.0209C110.741 25.7568 110.606 26.5912 110.606 27.524C110.606 28.9855 110.928 30.1723 111.57 31.0844C112.223 31.9862 113.187 32.437 114.462 32.437C115.416 32.437 116.141 32.2194 116.639 31.784C117.136 31.3487 117.509 30.7268 117.758 29.9183L122.08 30.8201C121.604 32.6029 120.702 33.9762 119.375 34.9402C118.048 35.9041 116.411 36.3861 114.462 36.3861ZM125.159 35.9197L125.19 13.5313H129.481V27.2131L135.172 19.1284H140.396L134.332 27.524L140.8 35.9197H135.296L129.481 27.835V35.9197H125.159Z" fill="white"/>
<path d="M8.0889 41.6744H8.99471L10.5696 45.5199H10.6276L12.2025 41.6744H13.1083V46.6213H12.3981V43.0416H12.3522L10.8933 46.6141H10.3039L8.84495 43.0392H8.79905V46.6213H8.0889V41.6744ZM16.5538 45.0827V42.9111H17.2784V46.6213H16.5683V45.9788H16.5296C16.4443 46.1769 16.3074 46.3419 16.119 46.474C15.9322 46.6044 15.6995 46.6696 15.4209 46.6696C15.1826 46.6696 14.9716 46.6173 14.7881 46.5126C14.6061 46.4064 14.4628 46.2494 14.3581 46.0416C14.255 45.8339 14.2035 45.577 14.2035 45.2711V42.9111H14.9257V45.1841C14.9257 45.4369 14.9958 45.6382 15.1359 45.788C15.276 45.9378 15.458 46.0126 15.6818 46.0126C15.8171 46.0126 15.9515 45.9788 16.0852 45.9112C16.2204 45.8435 16.3324 45.7413 16.4209 45.6044C16.5111 45.4675 16.5554 45.2936 16.5538 45.0827ZM19.0391 41.6744V46.6213H18.3169V41.6744H19.0391ZM21.8107 42.9111V43.4909H19.7841V42.9111H21.8107ZM20.3276 42.0222H21.0498V45.5319C21.0498 45.672 21.0707 45.7775 21.1126 45.8484C21.1545 45.9176 21.2084 45.9651 21.2744 45.9909C21.3421 46.015 21.4153 46.0271 21.4942 46.0271C21.5522 46.0271 21.6029 46.0231 21.6464 46.015C21.6899 46.007 21.7237 46.0006 21.7479 45.9957L21.8783 46.5924C21.8364 46.6085 21.7769 46.6246 21.6996 46.6407C21.6223 46.6584 21.5256 46.668 21.4097 46.6696C21.2197 46.6729 21.0425 46.6391 20.8783 46.5682C20.714 46.4973 20.5812 46.3878 20.4797 46.2397C20.3783 46.0915 20.3276 45.9055 20.3276 45.6817V42.0222ZM22.6776 46.6213V42.9111H23.3999V46.6213H22.6776ZM23.0424 42.3387C22.9168 42.3387 22.8089 42.2968 22.7187 42.2131C22.6301 42.1277 22.5858 42.0263 22.5858 41.9087C22.5858 41.7895 22.6301 41.6881 22.7187 41.6044C22.8089 41.519 22.9168 41.4763 23.0424 41.4763C23.168 41.4763 23.2751 41.519 23.3636 41.6044C23.4538 41.6881 23.4989 41.7895 23.4989 41.9087C23.4989 42.0263 23.4538 42.1277 23.3636 42.2131C23.2751 42.2968 23.168 42.3387 23.0424 42.3387ZM24.4975 46.6213V41.6744H25.2197V43.5126H25.2632C25.3051 43.4353 25.3654 43.3459 25.4444 43.2445C25.5233 43.143 25.6328 43.0545 25.7729 42.9788C25.913 42.9015 26.0982 42.8628 26.3284 42.8628C26.6279 42.8628 26.8953 42.9385 27.1304 43.0899C27.3655 43.2413 27.5499 43.4595 27.6835 43.7445C27.8188 44.0295 27.8864 44.3725 27.8864 44.7735C27.8864 45.1745 27.8196 45.5183 27.6859 45.8049C27.5523 46.0899 27.3687 46.3097 27.1352 46.4643C26.9017 46.6173 26.6352 46.6938 26.3357 46.6938C26.1102 46.6938 25.9258 46.656 25.7825 46.5803C25.6408 46.5046 25.5297 46.416 25.4492 46.3146C25.3687 46.2131 25.3067 46.1229 25.2632 46.044H25.2028V46.6213H24.4975ZM25.2052 44.7662C25.2052 45.0271 25.2431 45.2558 25.3187 45.4522C25.3944 45.6487 25.5039 45.8025 25.6473 45.9136C25.7906 46.0231 25.9661 46.0779 26.1738 46.0779C26.3896 46.0779 26.57 46.0207 26.7149 45.9064C26.8598 45.7904 26.9693 45.6334 27.0434 45.4353C27.1191 45.2373 27.1569 45.0142 27.1569 44.7662C27.1569 44.5215 27.1199 44.3017 27.0458 44.1068C26.9734 43.912 26.8639 43.7582 26.7173 43.6454C26.5724 43.5327 26.3912 43.4764 26.1738 43.4764C25.9645 43.4764 25.7874 43.5303 25.6424 43.6382C25.4991 43.7461 25.3904 43.8967 25.3163 44.0899C25.2423 44.2831 25.2052 44.5086 25.2052 44.7662ZM28.7654 46.6213V42.9111H29.4635V43.5005H29.5022C29.5698 43.3008 29.689 43.1438 29.8597 43.0295C30.032 42.9136 30.2268 42.8556 30.4442 42.8556C30.4893 42.8556 30.5424 42.8572 30.6036 42.8604C30.6664 42.8636 30.7156 42.8677 30.751 42.8725V43.5633C30.722 43.5553 30.6705 43.5464 30.5964 43.5367C30.5223 43.5255 30.4482 43.5198 30.3742 43.5198C30.2035 43.5198 30.0513 43.5561 29.9176 43.6285C29.7856 43.6994 29.6809 43.7984 29.6036 43.9256C29.5263 44.0513 29.4877 44.1946 29.4877 44.3556V46.6213H28.7654ZM32.4905 46.7035C32.2554 46.7035 32.0429 46.66 31.8528 46.573C31.6628 46.4845 31.5123 46.3564 31.4011 46.189C31.2916 46.0215 31.2369 45.8162 31.2369 45.573C31.2369 45.3637 31.2771 45.1914 31.3577 45.0561C31.4382 44.9208 31.5469 44.8137 31.6838 44.7348C31.8206 44.6559 31.9736 44.5963 32.1427 44.5561C32.3118 44.5158 32.4841 44.4852 32.6596 44.4643C32.8818 44.4385 33.0622 44.4176 33.2007 44.4015C33.3392 44.3838 33.4398 44.3556 33.5026 44.317C33.5654 44.2783 33.5968 44.2155 33.5968 44.1285V44.1116C33.5968 43.9007 33.5372 43.7372 33.4181 43.6213C33.3005 43.5053 33.125 43.4474 32.8915 43.4474C32.6483 43.4474 32.4567 43.5013 32.3166 43.6092C32.1781 43.7155 32.0823 43.8339 32.0292 43.9643L31.3504 43.8097C31.4309 43.5843 31.5485 43.4023 31.7031 43.2638C31.8593 43.1237 32.0388 43.0222 32.2417 42.9594C32.4446 42.895 32.658 42.8628 32.8818 42.8628C33.03 42.8628 33.187 42.8805 33.3529 42.916C33.5203 42.9498 33.6765 43.0126 33.8215 43.1044C33.968 43.1962 34.088 43.3274 34.1814 43.4981C34.2748 43.6672 34.3215 43.887 34.3215 44.1575V46.6213H33.6161V46.1141H33.5872C33.5405 46.2075 33.4704 46.2993 33.377 46.3895C33.2836 46.4796 33.1636 46.5545 33.0171 46.6141C32.8706 46.6737 32.695 46.7035 32.4905 46.7035ZM32.6475 46.1237C32.8472 46.1237 33.0179 46.0843 33.1596 46.0054C33.3029 45.9265 33.4116 45.8234 33.4857 45.6962C33.5614 45.5674 33.5992 45.4297 33.5992 45.2832V44.8049C33.5735 44.8307 33.5236 44.8548 33.4495 44.8773C33.377 44.8983 33.2941 44.9168 33.2007 44.9329C33.1073 44.9474 33.0163 44.9611 32.9277 44.974C32.8392 44.9852 32.7651 44.9949 32.7055 45.003C32.5654 45.0207 32.4374 45.0505 32.3214 45.0923C32.2071 45.1342 32.1153 45.1946 32.0461 45.2735C31.9784 45.3508 31.9446 45.4538 31.9446 45.5827C31.9446 45.7614 32.0106 45.8967 32.1427 45.9885C32.2747 46.0787 32.443 46.1237 32.6475 46.1237ZM36.0737 44.4184V46.6213H35.3515V42.9111H36.0447V43.515H36.0906C36.176 43.3185 36.3096 43.1607 36.4916 43.0416C36.6752 42.9224 36.9062 42.8628 37.1848 42.8628C37.4376 42.8628 37.6591 42.916 37.8491 43.0222C38.0391 43.1269 38.1865 43.2831 38.2911 43.4909C38.3958 43.6986 38.4481 43.9554 38.4481 44.2614V46.6213H37.7259V44.3484C37.7259 44.0794 37.6558 43.8693 37.5157 43.7179C37.3757 43.5649 37.1832 43.4884 36.9384 43.4884C36.771 43.4884 36.622 43.5247 36.4916 43.5971C36.3628 43.6696 36.2605 43.7759 36.1848 43.916C36.1107 44.0545 36.0737 44.2219 36.0737 44.4184ZM40.8737 46.6938C40.5742 46.6938 40.3068 46.6173 40.0717 46.4643C39.8382 46.3097 39.6547 46.0899 39.521 45.8049C39.389 45.5183 39.3229 45.1745 39.3229 44.7735C39.3229 44.3725 39.3898 44.0295 39.5234 43.7445C39.6587 43.4595 39.8439 43.2413 40.079 43.0899C40.3141 42.9385 40.5806 42.8628 40.8785 42.8628C41.1088 42.8628 41.294 42.9015 41.4341 42.9788C41.5758 43.0545 41.6853 43.143 41.7626 43.2445C41.8415 43.3459 41.9027 43.4353 41.9462 43.5126H41.9896V41.6744H42.7119V46.6213H42.0065V46.044H41.9462C41.9027 46.1229 41.8399 46.2131 41.7577 46.3146C41.6772 46.416 41.5661 46.5046 41.4244 46.5803C41.2827 46.656 41.0991 46.6938 40.8737 46.6938ZM41.0331 46.0779C41.2408 46.0779 41.4164 46.0231 41.5597 45.9136C41.7046 45.8025 41.8141 45.6487 41.8882 45.4522C41.9639 45.2558 42.0017 45.0271 42.0017 44.7662C42.0017 44.5086 41.9647 44.2831 41.8906 44.0899C41.8165 43.8967 41.7078 43.7461 41.5645 43.6382C41.4212 43.5303 41.2441 43.4764 41.0331 43.4764C40.8157 43.4764 40.6345 43.5327 40.4896 43.6454C40.3447 43.7582 40.2352 43.912 40.1611 44.1068C40.0886 44.3017 40.0524 44.5215 40.0524 44.7662C40.0524 45.0142 40.0894 45.2373 40.1635 45.4353C40.2376 45.6334 40.3471 45.7904 40.492 45.9064C40.6386 46.0207 40.8189 46.0779 41.0331 46.0779ZM45.7368 46.6213V41.6744H47.5002C47.885 41.6744 48.2039 41.7445 48.4567 41.8845C48.7095 42.0246 48.8987 42.2163 49.0243 42.4594C49.1499 42.701 49.2127 42.9731 49.2127 43.2759C49.2127 43.5802 49.1491 43.854 49.0219 44.0971C48.8963 44.3387 48.7063 44.5303 48.4519 44.672C48.199 44.8121 47.881 44.8822 47.4977 44.8822H46.2852V44.2493H47.4301C47.6733 44.2493 47.8705 44.2075 48.0219 44.1237C48.1733 44.0384 48.2844 43.9224 48.3552 43.7759C48.4261 43.6293 48.4615 43.4627 48.4615 43.2759C48.4615 43.0891 48.4261 42.9232 48.3552 42.7783C48.2844 42.6334 48.1725 42.5198 48.0195 42.4377C47.8681 42.3556 47.6684 42.3145 47.4204 42.3145H46.4832V46.6213H45.7368ZM50.0978 46.6213V42.9111H50.7959V43.5005H50.8345C50.9022 43.3008 51.0213 43.1438 51.192 43.0295C51.3643 42.9136 51.5592 42.8556 51.7766 42.8556C51.8217 42.8556 51.8748 42.8572 51.936 42.8604C51.9988 42.8636 52.0479 42.8677 52.0833 42.8725V43.5633C52.0544 43.5553 52.0028 43.5464 51.9287 43.5367C51.8547 43.5255 51.7806 43.5198 51.7065 43.5198C51.5358 43.5198 51.3836 43.5561 51.25 43.6285C51.1179 43.6994 51.0133 43.7984 50.936 43.9256C50.8587 44.0513 50.82 44.1946 50.82 44.3556V46.6213H50.0978ZM54.2426 46.6962C53.877 46.6962 53.5622 46.6181 53.2981 46.4619C53.0356 46.3041 52.8327 46.0827 52.6894 45.7977C52.5477 45.511 52.4768 45.1753 52.4768 44.7904C52.4768 44.4104 52.5477 44.0754 52.6894 43.7855C52.8327 43.4957 53.0324 43.2694 53.2885 43.1068C53.5461 42.9441 53.8472 42.8628 54.1918 42.8628C54.4012 42.8628 54.6041 42.8974 54.8006 42.9667C54.997 43.0359 55.1733 43.1446 55.3295 43.2928C55.4857 43.4409 55.6089 43.6334 55.6991 43.8701C55.7893 44.1052 55.8344 44.391 55.8344 44.7276V44.9836H52.8851V44.4426H55.1266C55.1266 44.2525 55.088 44.0843 55.0107 43.9377C54.9334 43.7896 54.8247 43.6728 54.6846 43.5875C54.5461 43.5021 54.3835 43.4595 54.1967 43.4595C53.9938 43.4595 53.8166 43.5094 53.6653 43.6092C53.5155 43.7074 53.3996 43.8363 53.3174 43.9957C53.2369 44.1535 53.1967 44.325 53.1967 44.5102V44.9329C53.1967 45.1809 53.2401 45.3919 53.3271 45.5658C53.4157 45.7397 53.5389 45.8725 53.6967 45.9643C53.8545 46.0545 54.0389 46.0996 54.2498 46.0996C54.3867 46.0996 54.5115 46.0803 54.6242 46.0416C54.7369 46.0014 54.8344 45.9418 54.9165 45.8629C54.9986 45.784 55.0614 45.6865 55.1049 45.5706L55.7885 45.6938C55.7337 45.8951 55.6355 46.0714 55.4938 46.2228C55.3537 46.3725 55.1774 46.4893 54.9648 46.573C54.7539 46.6552 54.5131 46.6962 54.2426 46.6962ZM58.2666 46.6962C57.9187 46.6962 57.6152 46.6165 57.3559 46.4571C57.0967 46.2977 56.8954 46.0746 56.7521 45.788C56.6087 45.5014 56.5371 45.1664 56.5371 44.7831C56.5371 44.3983 56.6087 44.0617 56.7521 43.7735C56.8954 43.4852 57.0967 43.2614 57.3559 43.102C57.6152 42.9425 57.9187 42.8628 58.2666 42.8628C58.6144 42.8628 58.918 42.9425 59.1772 43.102C59.4365 43.2614 59.6378 43.4852 59.7811 43.7735C59.9244 44.0617 59.9961 44.3983 59.9961 44.7831C59.9961 45.1664 59.9244 45.5014 59.7811 45.788C59.6378 46.0746 59.4365 46.2977 59.1772 46.4571C58.918 46.6165 58.6144 46.6962 58.2666 46.6962ZM58.269 46.0899C58.4944 46.0899 58.6812 46.0303 58.8294 45.9112C58.9775 45.792 59.087 45.6334 59.1579 45.4353C59.2304 45.2373 59.2666 45.0191 59.2666 44.7807C59.2666 44.544 59.2304 44.3266 59.1579 44.1285C59.087 43.9289 58.9775 43.7686 58.8294 43.6479C58.6812 43.5271 58.4944 43.4667 58.269 43.4667C58.0419 43.4667 57.8535 43.5271 57.7038 43.6479C57.5556 43.7686 57.4453 43.9289 57.3728 44.1285C57.302 44.3266 57.2666 44.544 57.2666 44.7807C57.2666 45.0191 57.302 45.2373 57.3728 45.4353C57.4453 45.6334 57.5556 45.792 57.7038 45.9112C57.8535 46.0303 58.0419 46.0899 58.269 46.0899ZM61.5617 46.6213L60.4699 42.9111H61.2163L61.9433 45.6358H61.9796L62.7091 42.9111H63.4554L64.1801 45.6237H64.2163L64.9386 42.9111H65.685L64.5956 46.6213H63.8588L63.1052 43.9426H63.0496L62.296 46.6213H61.5617ZM67.1606 44.4184V46.6213H66.4384V42.9111H67.1316V43.515H67.1775C67.2629 43.3185 67.3965 43.1607 67.5785 43.0416C67.7621 42.9224 67.9931 42.8628 68.2717 42.8628C68.5246 42.8628 68.746 42.916 68.936 43.0222C69.126 43.1269 69.2734 43.2831 69.378 43.4909C69.4827 43.6986 69.535 43.9554 69.535 44.2614V46.6213H68.8128V44.3484C68.8128 44.0794 68.7428 43.8693 68.6027 43.7179C68.4626 43.5649 68.2701 43.4884 68.0253 43.4884C67.8579 43.4884 67.7089 43.5247 67.5785 43.5971C67.4497 43.6696 67.3474 43.7759 67.2717 43.916C67.1976 44.0545 67.1606 44.2219 67.1606 44.4184ZM72.1707 46.6962C71.8052 46.6962 71.4904 46.6181 71.2263 46.4619C70.9638 46.3041 70.7609 46.0827 70.6176 45.7977C70.4759 45.511 70.405 45.1753 70.405 44.7904C70.405 44.4104 70.4759 44.0754 70.6176 43.7855C70.7609 43.4957 70.9606 43.2694 71.2166 43.1068C71.4743 42.9441 71.7754 42.8628 72.12 42.8628C72.3293 42.8628 72.5322 42.8974 72.7287 42.9667C72.9252 43.0359 73.1015 43.1446 73.2577 43.2928C73.4139 43.4409 73.5371 43.6334 73.6273 43.8701C73.7174 44.1052 73.7625 44.391 73.7625 44.7276V44.9836H70.8132V44.4426H73.0548C73.0548 44.2525 73.0161 44.0843 72.9389 43.9377C72.8616 43.7896 72.7529 43.6728 72.6128 43.5875C72.4743 43.5021 72.3116 43.4595 72.1248 43.4595C71.9219 43.4595 71.7448 43.5094 71.5934 43.6092C71.4437 43.7074 71.3277 43.8363 71.2456 43.9957C71.1651 44.1535 71.1248 44.325 71.1248 44.5102V44.9329C71.1248 45.1809 71.1683 45.3919 71.2553 45.5658C71.3438 45.7397 71.467 45.8725 71.6248 45.9643C71.7826 46.0545 71.967 46.0996 72.178 46.0996C72.3148 46.0996 72.4396 46.0803 72.5524 46.0416C72.6651 46.0014 72.7625 45.9418 72.8446 45.8629C72.9268 45.784 72.9896 45.6865 73.0331 45.5706L73.7166 45.6938C73.6619 45.8951 73.5637 46.0714 73.422 46.2228C73.2819 46.3725 73.1055 46.4893 72.893 46.573C72.682 46.6552 72.4413 46.6962 72.1707 46.6962ZM76.0208 46.6938C75.7213 46.6938 75.454 46.6173 75.2189 46.4643C74.9854 46.3097 74.8018 46.0899 74.6681 45.8049C74.5361 45.5183 74.4701 45.1745 74.4701 44.7735C74.4701 44.3725 74.5369 44.0295 74.6705 43.7445C74.8058 43.4595 74.991 43.2413 75.2261 43.0899C75.4612 42.9385 75.7277 42.8628 76.0256 42.8628C76.2559 42.8628 76.4411 42.9015 76.5812 42.9788C76.7229 43.0545 76.8324 43.143 76.9097 43.2445C76.9886 43.3459 77.0498 43.4353 77.0933 43.5126H77.1368V41.6744H77.859V46.6213H77.1537V46.044H77.0933C77.0498 46.1229 76.987 46.2131 76.9049 46.3146C76.8244 46.416 76.7133 46.5046 76.5715 46.5803C76.4298 46.656 76.2463 46.6938 76.0208 46.6938ZM76.1802 46.0779C76.388 46.0779 76.5635 46.0231 76.7068 45.9136C76.8517 45.8025 76.9612 45.6487 77.0353 45.4522C77.111 45.2558 77.1488 45.0271 77.1488 44.7662C77.1488 44.5086 77.1118 44.2831 77.0377 44.0899C76.9637 43.8967 76.855 43.7461 76.7116 43.6382C76.5683 43.5303 76.3912 43.4764 76.1802 43.4764C75.9628 43.4764 75.7817 43.5327 75.6367 43.6454C75.4918 43.7582 75.3823 43.912 75.3082 44.1068C75.2358 44.3017 75.1995 44.5215 75.1995 44.7662C75.1995 45.0142 75.2366 45.2373 75.3107 45.4353C75.3847 45.6334 75.4942 45.7904 75.6392 45.9064C75.7857 46.0207 75.9661 46.0779 76.1802 46.0779ZM84.9927 43.2831H84.2391C84.2101 43.1221 84.1562 42.9804 84.0773 42.858C83.9984 42.7356 83.9017 42.6317 83.7874 42.5464C83.6731 42.461 83.5451 42.3966 83.4033 42.3532C83.2632 42.3097 83.1143 42.2879 82.9565 42.2879C82.6714 42.2879 82.4162 42.3596 82.1908 42.5029C81.9669 42.6462 81.7898 42.8564 81.6594 43.1334C81.5305 43.4103 81.4661 43.7485 81.4661 44.1479C81.4661 44.5505 81.5305 44.8902 81.6594 45.1672C81.7898 45.4442 81.9677 45.6535 82.1932 45.7952C82.4186 45.9369 82.6723 46.0078 82.9541 46.0078C83.1103 46.0078 83.2584 45.9869 83.3985 45.945C83.5402 45.9015 83.6682 45.8379 83.7826 45.7542C83.8969 45.6704 83.9935 45.5682 84.0724 45.4474C84.153 45.325 84.2085 45.1849 84.2391 45.0271L84.9927 45.0295C84.9525 45.2727 84.8744 45.4965 84.7584 45.701C84.6441 45.9039 84.4968 46.0795 84.3164 46.2276C84.1377 46.3742 83.9331 46.4877 83.7029 46.5682C83.4726 46.6487 83.2214 46.689 82.9492 46.689C82.5209 46.689 82.1392 46.5875 81.8043 46.3846C81.4693 46.1801 81.2052 45.8878 81.012 45.5078C80.8204 45.1278 80.7246 44.6744 80.7246 44.1479C80.7246 43.6197 80.8212 43.1664 81.0144 42.7879C81.2077 42.4079 81.4717 42.1164 81.8067 41.9135C82.1416 41.709 82.5225 41.6068 82.9492 41.6068C83.2117 41.6068 83.4565 41.6446 83.6835 41.7203C83.9122 41.7944 84.1175 41.9039 84.2995 42.0488C84.4815 42.1921 84.632 42.3676 84.7512 42.5754C84.8704 42.7815 84.9509 43.0174 84.9927 43.2831ZM86.9756 46.7035C86.7405 46.7035 86.528 46.66 86.338 46.573C86.1479 46.4845 85.9974 46.3564 85.8863 46.189C85.7768 46.0215 85.722 45.8162 85.722 45.573C85.722 45.3637 85.7623 45.1914 85.8428 45.0561C85.9233 44.9208 86.032 44.8137 86.1689 44.7348C86.3057 44.6559 86.4587 44.5963 86.6278 44.5561C86.7969 44.5158 86.9692 44.4852 87.1447 44.4643C87.367 44.4385 87.5473 44.4176 87.6858 44.4015C87.8243 44.3838 87.9249 44.3556 87.9877 44.317C88.0505 44.2783 88.0819 44.2155 88.0819 44.1285V44.1116C88.0819 43.9007 88.0224 43.7372 87.9032 43.6213C87.7856 43.5053 87.6101 43.4474 87.3766 43.4474C87.1335 43.4474 86.9418 43.5013 86.8017 43.6092C86.6632 43.7155 86.5674 43.8339 86.5143 43.9643L85.8355 43.8097C85.916 43.5843 86.0336 43.4023 86.1882 43.2638C86.3444 43.1237 86.5239 43.0222 86.7268 42.9594C86.9297 42.895 87.1431 42.8628 87.367 42.8628C87.5151 42.8628 87.6721 42.8805 87.838 42.916C88.0054 42.9498 88.1617 43.0126 88.3066 43.1044C88.4531 43.1962 88.5731 43.3274 88.6665 43.4981C88.7599 43.6672 88.8066 43.887 88.8066 44.1575V46.6213H88.1013V46.1141H88.0723C88.0256 46.2075 87.9555 46.2993 87.8621 46.3895C87.7687 46.4796 87.6488 46.5545 87.5022 46.6141C87.3557 46.6737 87.1802 46.7035 86.9756 46.7035ZM87.1326 46.1237C87.3323 46.1237 87.503 46.0843 87.6447 46.0054C87.7881 45.9265 87.8968 45.8234 87.9708 45.6962C88.0465 45.5674 88.0844 45.4297 88.0844 45.2832V44.8049C88.0586 44.8307 88.0087 44.8548 87.9346 44.8773C87.8621 44.8983 87.7792 44.9168 87.6858 44.9329C87.5924 44.9474 87.5014 44.9611 87.4128 44.974C87.3243 44.9852 87.2502 44.9949 87.1906 45.003C87.0505 45.0207 86.9225 45.0505 86.8066 45.0923C86.6922 45.1342 86.6004 45.1946 86.5312 45.2735C86.4636 45.3508 86.4297 45.4538 86.4297 45.5827C86.4297 45.7614 86.4958 45.8967 86.6278 45.9885C86.7599 46.0787 86.9281 46.1237 87.1326 46.1237ZM89.8366 46.6213V42.9111H90.5347V43.5005H90.5733C90.6409 43.3008 90.7601 43.1438 90.9308 43.0295C91.1031 42.9136 91.2979 42.8556 91.5153 42.8556C91.5604 42.8556 91.6136 42.8572 91.6748 42.8604C91.7376 42.8636 91.7867 42.8677 91.8221 42.8725V43.5633C91.7931 43.5553 91.7416 43.5464 91.6675 43.5367C91.5934 43.5255 91.5194 43.5198 91.4453 43.5198C91.2746 43.5198 91.1224 43.5561 90.9888 43.6285C90.8567 43.6994 90.752 43.7984 90.6748 43.9256C90.5975 44.0513 90.5588 44.1946 90.5588 44.3556V46.6213H89.8366ZM95.2954 43.8169L94.6408 43.9329C94.6134 43.8492 94.5699 43.7694 94.5103 43.6938C94.4524 43.6181 94.3735 43.5561 94.2736 43.5078C94.1738 43.4595 94.049 43.4353 93.8992 43.4353C93.6947 43.4353 93.524 43.4812 93.3871 43.573C93.2503 43.6632 93.1818 43.7799 93.1818 43.9232C93.1818 44.0472 93.2277 44.1471 93.3195 44.2228C93.4113 44.2984 93.5594 44.3604 93.764 44.4087L94.3533 44.544C94.6947 44.6229 94.9492 44.7445 95.1166 44.9088C95.2841 45.073 95.3678 45.2864 95.3678 45.5489C95.3678 45.7711 95.3034 45.9692 95.1746 46.1431C95.0474 46.3154 94.8695 46.4506 94.6408 46.5489C94.4137 46.6471 94.1504 46.6962 93.8509 46.6962C93.4355 46.6962 93.0965 46.6077 92.834 46.4305C92.5715 46.2518 92.4105 45.9981 92.3509 45.6696L93.049 45.5634C93.0925 45.7453 93.1818 45.883 93.3171 45.9764C93.4524 46.0682 93.6287 46.1141 93.8461 46.1141C94.0828 46.1141 94.272 46.065 94.4137 45.9667C94.5554 45.8669 94.6263 45.7453 94.6263 45.602C94.6263 45.4861 94.5828 45.3886 94.4959 45.3097C94.4105 45.2308 94.2793 45.1712 94.1021 45.131L93.4741 44.9933C93.1279 44.9144 92.8718 44.7888 92.706 44.6165C92.5417 44.4442 92.4596 44.226 92.4596 43.9619C92.4596 43.7429 92.5208 43.5512 92.6432 43.387C92.7656 43.2227 92.9346 43.0947 93.1504 43.0029C93.3662 42.9095 93.6134 42.8628 93.892 42.8628C94.293 42.8628 94.6086 42.9498 94.8389 43.1237C95.0691 43.296 95.2213 43.5271 95.2954 43.8169ZM100.854 42.9739C100.828 42.7453 100.722 42.5681 100.535 42.4425C100.349 42.3153 100.113 42.2517 99.83 42.2517C99.6271 42.2517 99.4516 42.2839 99.3035 42.3483C99.1553 42.4111 99.0402 42.4981 98.958 42.6092C98.8775 42.7187 98.8373 42.8435 98.8373 42.9836C98.8373 43.1012 98.8646 43.2026 98.9194 43.288C98.9758 43.3733 99.049 43.445 99.1392 43.5029C99.231 43.5593 99.3292 43.6068 99.4339 43.6454C99.5386 43.6825 99.6392 43.7131 99.7358 43.7372L100.219 43.8628C100.377 43.9015 100.539 43.9538 100.704 44.0198C100.87 44.0859 101.024 44.1728 101.166 44.2807C101.308 44.3886 101.422 44.5223 101.509 44.6817C101.597 44.8411 101.642 45.0319 101.642 45.2542C101.642 45.5344 101.569 45.7832 101.424 46.0006C101.281 46.218 101.072 46.3895 100.799 46.5151C100.527 46.6407 100.197 46.7035 99.8107 46.7035C99.4403 46.7035 99.1199 46.6447 98.8493 46.5271C98.5788 46.4096 98.367 46.2429 98.2141 46.0271C98.0611 45.8097 97.9765 45.5521 97.9604 45.2542H98.7092C98.7237 45.4329 98.7817 45.5819 98.8832 45.701C98.9862 45.8186 99.1175 45.9064 99.2769 45.9643C99.4379 46.0207 99.6143 46.0489 99.8059 46.0489C100.017 46.0489 100.204 46.0159 100.369 45.9498C100.535 45.8822 100.665 45.7888 100.76 45.6696C100.855 45.5489 100.903 45.408 100.903 45.2469C100.903 45.1004 100.861 44.9804 100.777 44.887C100.695 44.7936 100.583 44.7163 100.441 44.6551C100.301 44.5939 100.142 44.54 99.9653 44.4933L99.3808 44.3339C98.9846 44.226 98.6706 44.0674 98.4387 43.858C98.2084 43.6487 98.0933 43.3717 98.0933 43.0271C98.0933 42.7421 98.1706 42.4933 98.3252 42.2807C98.4798 42.0681 98.6891 41.9031 98.9532 41.7855C99.2173 41.6664 99.5152 41.6068 99.8469 41.6068C100.182 41.6068 100.477 41.6655 100.733 41.7831C100.991 41.9007 101.194 42.0625 101.342 42.2686C101.49 42.4731 101.568 42.7082 101.574 42.9739H100.854ZM104.894 45.0827V42.9111H105.619V46.6213H104.908V45.9788H104.87C104.784 46.1769 104.648 46.3419 104.459 46.474C104.272 46.6044 104.04 46.6696 103.761 46.6696C103.523 46.6696 103.312 46.6173 103.128 46.5126C102.946 46.4064 102.803 46.2494 102.698 46.0416C102.595 45.8339 102.544 45.577 102.544 45.2711V42.9111H103.266V45.1841C103.266 45.4369 103.336 45.6382 103.476 45.788C103.616 45.9378 103.798 46.0126 104.022 46.0126C104.157 46.0126 104.292 45.9788 104.425 45.9112C104.561 45.8435 104.672 45.7413 104.761 45.6044C104.851 45.4675 104.896 45.2936 104.894 45.0827ZM106.657 48.0127V42.9111H107.362V43.5126H107.423C107.465 43.4353 107.525 43.3459 107.604 43.2445C107.683 43.143 107.792 43.0545 107.932 42.9788C108.072 42.9015 108.258 42.8628 108.488 42.8628C108.787 42.8628 109.055 42.9385 109.29 43.0899C109.525 43.2413 109.709 43.4595 109.843 43.7445C109.978 44.0295 110.046 44.3725 110.046 44.7735C110.046 45.1745 109.979 45.5183 109.845 45.8049C109.712 46.0899 109.528 46.3097 109.295 46.4643C109.061 46.6173 108.795 46.6938 108.495 46.6938C108.27 46.6938 108.085 46.656 107.942 46.5803C107.8 46.5046 107.689 46.416 107.609 46.3146C107.528 46.2131 107.466 46.1229 107.423 46.044H107.379V48.0127H106.657ZM107.365 44.7662C107.365 45.0271 107.403 45.2558 107.478 45.4522C107.554 45.6487 107.663 45.8025 107.807 45.9136C107.95 46.0231 108.126 46.0779 108.333 46.0779C108.549 46.0779 108.729 46.0207 108.874 45.9064C109.019 45.7904 109.129 45.6334 109.203 45.4353C109.279 45.2373 109.316 45.0142 109.316 44.7662C109.316 44.5215 109.279 44.3017 109.205 44.1068C109.133 43.912 109.023 43.7582 108.877 43.6454C108.732 43.5327 108.551 43.4764 108.333 43.4764C108.124 43.4764 107.947 43.5303 107.802 43.6382C107.659 43.7461 107.55 43.8967 107.476 44.0899C107.402 44.2831 107.365 44.5086 107.365 44.7662ZM112.522 46.6962C112.157 46.6962 111.842 46.6181 111.578 46.4619C111.315 46.3041 111.112 46.0827 110.969 45.7977C110.827 45.511 110.756 45.1753 110.756 44.7904C110.756 44.4104 110.827 44.0754 110.969 43.7855C111.112 43.4957 111.312 43.2694 111.568 43.1068C111.826 42.9441 112.127 42.8628 112.471 42.8628C112.681 42.8628 112.884 42.8974 113.08 42.9667C113.277 43.0359 113.453 43.1446 113.609 43.2928C113.765 43.4409 113.889 43.6334 113.979 43.8701C114.069 44.1052 114.114 44.391 114.114 44.7276V44.9836H111.165V44.4426H113.406C113.406 44.2525 113.368 44.0843 113.29 43.9377C113.213 43.7896 113.104 43.6728 112.964 43.5875C112.826 43.5021 112.663 43.4595 112.476 43.4595C112.273 43.4595 112.096 43.5094 111.945 43.6092C111.795 43.7074 111.679 43.8363 111.597 43.9957C111.517 44.1535 111.476 44.325 111.476 44.5102V44.9329C111.476 45.1809 111.52 45.3919 111.607 45.5658C111.695 45.7397 111.819 45.8725 111.976 45.9643C112.134 46.0545 112.319 46.0996 112.529 46.0996C112.666 46.0996 112.791 46.0803 112.904 46.0416C113.017 46.0014 113.114 45.9418 113.196 45.8629C113.278 45.784 113.341 45.6865 113.385 45.5706L114.068 45.6938C114.013 45.8951 113.915 46.0714 113.773 46.2228C113.633 46.3725 113.457 46.4893 113.244 46.573C113.033 46.6552 112.793 46.6962 112.522 46.6962ZM114.983 46.6213V42.9111H115.681V43.5005H115.72C115.788 43.3008 115.907 43.1438 116.078 43.0295C116.25 42.9136 116.445 42.8556 116.662 42.8556C116.707 42.8556 116.76 42.8572 116.822 42.8604C116.884 42.8636 116.933 42.8677 116.969 42.8725V43.5633C116.94 43.5553 116.888 43.5464 116.814 43.5367C116.74 43.5255 116.666 43.5198 116.592 43.5198C116.421 43.5198 116.269 43.5561 116.136 43.6285C116.004 43.6994 115.899 43.7984 115.822 43.9256C115.744 44.0513 115.706 44.1946 115.706 44.3556V46.6213H114.983ZM120.442 43.8169L119.788 43.9329C119.76 43.8492 119.717 43.7694 119.657 43.6938C119.599 43.6181 119.52 43.5561 119.42 43.5078C119.321 43.4595 119.196 43.4353 119.046 43.4353C118.842 43.4353 118.671 43.4812 118.534 43.573C118.397 43.6632 118.329 43.7799 118.329 43.9232C118.329 44.0472 118.375 44.1471 118.466 44.2228C118.558 44.2984 118.706 44.3604 118.911 44.4087L119.5 44.544C119.842 44.6229 120.096 44.7445 120.263 44.9088C120.431 45.073 120.515 45.2864 120.515 45.5489C120.515 45.7711 120.45 45.9692 120.321 46.1431C120.194 46.3154 120.016 46.4506 119.788 46.5489C119.561 46.6471 119.297 46.6962 118.998 46.6962C118.582 46.6962 118.243 46.6077 117.981 46.4305C117.718 46.2518 117.557 45.9981 117.498 45.6696L118.196 45.5634C118.239 45.7453 118.329 45.883 118.464 45.9764C118.599 46.0682 118.775 46.1141 118.993 46.1141C119.23 46.1141 119.419 46.065 119.561 45.9667C119.702 45.8669 119.773 45.7453 119.773 45.602C119.773 45.4861 119.73 45.3886 119.643 45.3097C119.557 45.2308 119.426 45.1712 119.249 45.131L118.621 44.9933C118.275 44.9144 118.019 44.7888 117.853 44.6165C117.689 44.4442 117.606 44.226 117.606 43.9619C117.606 43.7429 117.668 43.5512 117.79 43.387C117.912 43.2227 118.081 43.0947 118.297 43.0029C118.513 42.9095 118.76 42.8628 119.039 42.8628C119.44 42.8628 119.755 42.9498 119.986 43.1237C120.216 43.296 120.368 43.5271 120.442 43.8169ZM123.109 42.9111V43.4909H121.082V42.9111H123.109ZM121.626 42.0222H122.348V45.5319C122.348 45.672 122.369 45.7775 122.411 45.8484C122.452 45.9176 122.506 45.9651 122.572 45.9909C122.64 46.015 122.713 46.0271 122.792 46.0271C122.85 46.0271 122.901 46.0231 122.944 46.015C122.988 46.007 123.022 46.0006 123.046 45.9957L123.176 46.5924C123.134 46.6085 123.075 46.6246 122.998 46.6407C122.92 46.6584 122.824 46.668 122.708 46.6696C122.518 46.6729 122.341 46.6391 122.176 46.5682C122.012 46.4973 121.879 46.3878 121.778 46.2397C121.676 46.0915 121.626 45.9055 121.626 45.6817V42.0222ZM125.499 46.6962C125.151 46.6962 124.847 46.6165 124.588 46.4571C124.329 46.2977 124.127 46.0746 123.984 45.788C123.841 45.5014 123.769 45.1664 123.769 44.7831C123.769 44.3983 123.841 44.0617 123.984 43.7735C124.127 43.4852 124.329 43.2614 124.588 43.102C124.847 42.9425 125.151 42.8628 125.499 42.8628C125.846 42.8628 126.15 42.9425 126.409 43.102C126.669 43.2614 126.87 43.4852 127.013 43.7735C127.156 44.0617 127.228 44.3983 127.228 44.7831C127.228 45.1664 127.156 45.5014 127.013 45.788C126.87 46.0746 126.669 46.2977 126.409 46.4571C126.15 46.6165 125.846 46.6962 125.499 46.6962ZM125.501 46.0899C125.726 46.0899 125.913 46.0303 126.061 45.9112C126.21 45.792 126.319 45.6334 126.39 45.4353C126.462 45.2373 126.499 45.0191 126.499 44.7807C126.499 44.544 126.462 44.3266 126.39 44.1285C126.319 43.9289 126.21 43.7686 126.061 43.6479C125.913 43.5271 125.726 43.4667 125.501 43.4667C125.274 43.4667 125.086 43.5271 124.936 43.6479C124.788 43.7686 124.677 43.9289 124.605 44.1285C124.534 44.3266 124.499 44.544 124.499 44.7807C124.499 45.0191 124.534 45.2373 124.605 45.4353C124.677 45.6334 124.788 45.792 124.936 45.9112C125.086 46.0303 125.274 46.0899 125.501 46.0899ZM128.102 46.6213V42.9111H128.8V43.5005H128.839C128.907 43.3008 129.026 43.1438 129.197 43.0295C129.369 42.9136 129.564 42.8556 129.781 42.8556C129.826 42.8556 129.879 42.8572 129.94 42.8604C130.003 42.8636 130.052 42.8677 130.088 42.8725V43.5633C130.059 43.5553 130.007 43.5464 129.933 43.5367C129.859 43.5255 129.785 43.5198 129.711 43.5198C129.54 43.5198 129.388 43.5561 129.254 43.6285C129.122 43.6994 129.018 43.7984 128.94 43.9256C128.863 44.0513 128.825 44.1946 128.825 44.3556V46.6213H128.102ZM132.247 46.6962C131.882 46.6962 131.567 46.6181 131.303 46.4619C131.04 46.3041 130.837 46.0827 130.694 45.7977C130.552 45.511 130.481 45.1753 130.481 44.7904C130.481 44.4104 130.552 44.0754 130.694 43.7855C130.837 43.4957 131.037 43.2694 131.293 43.1068C131.551 42.9441 131.852 42.8628 132.196 42.8628C132.406 42.8628 132.609 42.8974 132.805 42.9667C133.001 43.0359 133.178 43.1446 133.334 43.2928C133.49 43.4409 133.613 43.6334 133.704 43.8701C133.794 44.1052 133.839 44.391 133.839 44.7276V44.9836H130.89V44.4426H133.131C133.131 44.2525 133.092 44.0843 133.015 43.9377C132.938 43.7896 132.829 43.6728 132.689 43.5875C132.551 43.5021 132.388 43.4595 132.201 43.4595C131.998 43.4595 131.821 43.5094 131.67 43.6092C131.52 43.7074 131.404 43.8363 131.322 43.9957C131.241 44.1535 131.201 44.325 131.201 44.5102V44.9329C131.201 45.1809 131.245 45.3919 131.332 45.5658C131.42 45.7397 131.543 45.8725 131.701 45.9643C131.859 46.0545 132.043 46.0996 132.254 46.0996C132.391 46.0996 132.516 46.0803 132.629 46.0416C132.741 46.0014 132.839 45.9418 132.921 45.8629C133.003 45.784 133.066 45.6865 133.109 45.5706L133.793 45.6938C133.738 45.8951 133.64 46.0714 133.498 46.2228C133.358 46.3725 133.182 46.4893 132.969 46.573C132.758 46.6552 132.518 46.6962 132.247 46.6962Z" fill="#A1A1A1"/>
<path d="M191.682 36.3861C189.941 36.3861 188.448 35.9974 187.205 35.22C185.961 34.4427 185.007 33.3854 184.344 32.0483C183.68 30.7113 183.349 29.2032 183.349 27.524C183.349 25.8242 183.691 24.3057 184.375 22.9686C185.069 21.6315 186.044 20.5795 187.298 19.8125C188.552 19.0454 190.034 18.6619 191.744 18.6619C193.724 18.6619 195.383 19.1646 196.72 20.17C198.067 21.1651 198.927 22.5281 199.301 24.259L195.072 25.3785C194.823 24.5078 194.388 23.8289 193.766 23.3417C193.154 22.8546 192.46 22.611 191.682 22.611C190.791 22.611 190.06 22.8287 189.49 23.264C188.92 23.689 188.5 24.2746 188.231 25.0209C187.961 25.7568 187.826 26.5912 187.826 27.524C187.826 28.9855 188.148 30.1723 188.79 31.0844C189.443 31.9862 190.407 32.437 191.682 32.437C192.636 32.437 193.361 32.2194 193.859 31.784C194.356 31.3487 194.73 30.7268 194.978 29.9183L199.301 30.8201C198.824 32.6029 197.922 33.9762 196.595 34.9402C195.269 35.9041 193.631 36.3861 191.682 36.3861ZM213.853 35.9197V27.9904C213.853 27.6069 213.833 27.1198 213.791 26.529C213.75 25.9278 213.62 25.3266 213.402 24.7255C213.185 24.1243 212.827 23.6216 212.33 23.2174C211.842 22.8131 211.148 22.611 210.246 22.611C209.883 22.611 209.495 22.668 209.08 22.782C208.666 22.896 208.277 23.1189 207.914 23.4506C207.551 23.7719 207.251 24.2487 207.012 24.8809C206.784 25.5132 206.67 26.3528 206.67 27.3996L204.245 26.2491C204.245 24.9224 204.514 23.6786 205.053 22.5177C205.592 21.3568 206.401 20.4188 207.479 19.7036C208.567 18.9884 209.935 18.6308 211.583 18.6308C212.9 18.6308 213.972 18.8537 214.802 19.2994C215.631 19.7451 216.273 20.31 216.73 20.9941C217.196 21.6782 217.528 22.3933 217.725 23.1396C217.922 23.8755 218.041 24.5493 218.082 25.1608C218.124 25.7723 218.144 26.218 218.144 26.4979V35.9197H213.853ZM202.379 35.9197V13.5313H206.142V25.0364H206.67V35.9197H202.379ZM226.843 36.3861C225.641 36.3861 224.62 36.1581 223.78 35.702C222.951 35.2356 222.319 34.6189 221.883 33.8519C221.458 33.0745 221.246 32.2194 221.246 31.2865C221.246 30.5091 221.365 29.7991 221.603 29.1565C221.842 28.5139 222.225 27.949 222.754 27.4618C223.293 26.9643 224.013 26.5497 224.915 26.218C225.537 25.99 226.278 25.7879 227.138 25.6117C227.999 25.4355 228.973 25.2696 230.061 25.1142C231.15 24.9483 232.347 24.7669 233.653 24.57L232.129 25.4096C232.129 24.4145 231.891 23.6838 231.414 23.2174C230.937 22.7509 230.139 22.5177 229.02 22.5177C228.398 22.5177 227.75 22.668 227.076 22.9686C226.402 23.2692 225.931 23.803 225.661 24.57L221.837 23.3573C222.262 21.9684 223.06 20.8386 224.231 19.9679C225.402 19.0973 226.998 18.6619 229.02 18.6619C230.502 18.6619 231.818 18.89 232.969 19.346C234.119 19.8021 234.99 20.5898 235.581 21.7093C235.912 22.3312 236.109 22.9531 236.171 23.575C236.234 24.1969 236.265 24.8913 236.265 25.6583V35.9197H232.564V32.4681L233.093 33.1833C232.274 34.3131 231.388 35.1319 230.434 35.6398C229.491 36.1373 228.294 36.3861 226.843 36.3861ZM227.745 33.0589C228.522 33.0589 229.175 32.9242 229.704 32.6547C230.243 32.3748 230.668 32.0587 230.979 31.7063C231.3 31.3539 231.518 31.0585 231.632 30.8201C231.849 30.364 231.974 29.8354 232.005 29.2342C232.046 28.6227 232.067 28.1148 232.067 27.7106L233.311 28.0215C232.057 28.2288 231.041 28.405 230.263 28.5502C229.486 28.6849 228.859 28.8093 228.382 28.9233C227.905 29.0373 227.486 29.1617 227.123 29.2964C226.708 29.4623 226.371 29.6437 226.112 29.8406C225.863 30.0272 225.677 30.2345 225.553 30.4625C225.438 30.6905 225.381 30.9445 225.381 31.2243C225.381 31.6078 225.475 31.9395 225.661 32.2194C225.858 32.4889 226.133 32.6962 226.485 32.8413C226.838 32.9864 227.258 33.0589 227.745 33.0589ZM251.75 35.9197V27.9904C251.75 27.6069 251.73 27.1198 251.688 26.529C251.647 25.9278 251.517 25.3266 251.299 24.7255C251.082 24.1243 250.724 23.6216 250.227 23.2174C249.739 22.8131 249.045 22.611 248.143 22.611C247.781 22.611 247.392 22.668 246.977 22.782C246.563 22.896 246.174 23.1189 245.811 23.4506C245.448 23.7719 245.148 24.2487 244.909 24.8809C244.681 25.5132 244.567 26.3528 244.567 27.3996L242.142 26.2491C242.142 24.9224 242.411 23.6786 242.95 22.5177C243.489 21.3568 244.298 20.4188 245.376 19.7036C246.464 18.9884 247.832 18.6308 249.48 18.6308C250.797 18.6308 251.87 18.8537 252.699 19.2994C253.528 19.7451 254.171 20.31 254.627 20.9941C255.093 21.6782 255.425 22.3933 255.622 23.1396C255.819 23.8755 255.938 24.5493 255.979 25.1608C256.021 25.7723 256.041 26.218 256.041 26.4979V35.9197H251.75ZM240.276 35.9197V19.1284H244.039V24.6944H244.567V35.9197H240.276ZM267.259 43.8489C266.305 43.8489 265.398 43.6934 264.538 43.3825C263.678 43.0819 262.905 42.6569 262.221 42.1076C261.548 41.5686 260.998 40.9363 260.573 40.2108L264.491 38.314C264.761 38.8115 265.144 39.1898 265.642 39.449C266.15 39.7081 266.699 39.8377 267.29 39.8377C267.922 39.8377 268.518 39.7288 269.078 39.5112C269.637 39.3039 270.083 38.9877 270.415 38.5628C270.757 38.1482 270.918 37.6299 270.897 37.008V32.1261H271.425V19.1284H275.126V37.0702C275.126 37.4848 275.105 37.8735 275.064 38.2363C275.032 38.6094 274.97 38.9774 274.877 39.3401C274.607 40.3663 274.105 41.211 273.369 41.8744C272.643 42.5377 271.752 43.0301 270.695 43.3514C269.637 43.6831 268.492 43.8489 267.259 43.8489ZM266.886 36.3861C265.341 36.3861 263.989 35.9974 262.828 35.22C261.667 34.4427 260.76 33.3854 260.107 32.0483C259.464 30.7113 259.143 29.2032 259.143 27.524C259.143 25.8138 259.469 24.2953 260.122 22.9686C260.786 21.6315 261.713 20.5795 262.905 19.8125C264.097 19.0454 265.497 18.6619 267.103 18.6619C268.699 18.6619 270.042 19.0506 271.13 19.828C272.218 20.6054 273.042 21.6626 273.602 22.9997C274.162 24.3368 274.442 25.8449 274.442 27.524C274.442 29.2032 274.157 30.7113 273.587 32.0483C273.027 33.3854 272.187 34.4427 271.068 35.22C269.948 35.9974 268.554 36.3861 266.886 36.3861ZM267.57 32.6236C268.513 32.6236 269.264 32.4111 269.824 31.9862C270.394 31.5612 270.804 30.9652 271.052 30.1982C271.301 29.4312 271.425 28.5398 271.425 27.524C271.425 26.5083 271.301 25.6169 271.052 24.8498C270.804 24.0828 270.404 23.4869 269.855 23.0619C269.316 22.6369 268.606 22.4244 267.725 22.4244C266.782 22.4244 266.005 22.6576 265.393 23.1241C264.792 23.5801 264.346 24.1969 264.056 24.9742C263.766 25.7412 263.621 26.5912 263.621 27.524C263.621 28.4672 263.761 29.3275 264.04 30.1049C264.32 30.8719 264.75 31.4835 265.331 31.9395C265.911 32.3956 266.658 32.6236 267.57 32.6236ZM287.285 36.3861C285.564 36.3861 284.046 36.0181 282.729 35.2822C281.423 34.5359 280.397 33.515 279.651 32.2194C278.915 30.9134 278.547 29.4208 278.547 27.7417C278.547 25.9071 278.91 24.3109 279.635 22.9531C280.361 21.5952 281.361 20.5432 282.636 19.7969C283.911 19.0403 285.377 18.6619 287.036 18.6619C288.798 18.6619 290.296 19.0765 291.529 19.9057C292.763 20.7349 293.675 21.901 294.265 23.4039C294.856 24.9069 295.064 26.6741 294.887 28.7056H290.705V27.1509C290.705 25.4407 290.43 24.2124 289.881 23.4661C289.342 22.7095 288.456 22.3312 287.222 22.3312C285.782 22.3312 284.719 22.7717 284.035 23.6527C283.361 24.5234 283.025 25.8138 283.025 27.524C283.025 29.0891 283.361 30.3018 284.035 31.1621C284.719 32.0121 285.72 32.437 287.036 32.437C287.865 32.437 288.575 32.2556 289.166 31.8929C289.757 31.5301 290.208 31.0067 290.519 30.3226L294.747 31.5353C294.115 33.0693 293.115 34.2613 291.747 35.1112C290.389 35.9611 288.902 36.3861 287.285 36.3861ZM281.719 28.7056V25.565H292.851V28.7056H281.719Z" fill="white"/>
<path d="M293.074 13.889V13.1547H297.449V13.889H295.685V18.8083H294.835V13.889H293.074ZM298.727 13.1547H299.762L301.562 17.5495H301.628L303.428 13.1547H304.464V18.8083H303.652V14.7172H303.599L301.932 18.8001H301.259L299.591 14.7144H299.539V18.8083H298.727V13.1547Z" fill="#474747"/>
<defs>
<linearGradient id="paint0_linear_164_5384" x1="176.81" y1="5.45557" x2="176.81" y2="45.7603" gradientUnits="userSpaceOnUse">
<stop stop-color="#F8C006"/>
<stop offset="0.4375" stop-color="#F8A82D"/>
<stop offset="1" stop-color="#F1C907"/>
</linearGradient>
</defs>
</svg>
