<svg width="16" height="12" viewBox="0 0 16 12" fill="none" xmlns="http://www.w3.org/2000/svg">
<path d="M15.6654 1.7491C15.4811 1.06026 14.9397 0.518933 14.2509 0.334541C13.0036 1.0014e-07 7.99997 0 7.99997 0C7.99997 0 2.99637 1.0014e-07 1.74909 0.334541C1.06026 0.518933 0.518933 1.06026 0.334541 1.7491C1.0014e-07 2.99637 0 5.60026 0 5.60026C0 5.60026 1.0014e-07 8.20416 0.334541 9.45145C0.518933 10.1403 1.06026 10.6816 1.74909 10.866C2.99637 11.2005 7.99997 11.2005 7.99997 11.2005C7.99997 11.2005 13.0036 11.2005 14.2509 10.866C14.9397 10.6816 15.4811 10.1403 15.6654 9.45145C16 8.20416 16 5.60026 16 5.60026C16 5.60026 15.9987 2.99637 15.6654 1.7491Z" fill="#FF0000"/>
<path d="M6.39844 8.00015L10.5552 5.60043L6.39844 3.20068V8.00015Z" fill="white"/>
</svg>
